<svg width="35" height="35" viewBox="0 0 35 35" fill="none" xmlns="http://www.w3.org/2000/svg">
<mask id="mask0_309_3941" style="mask-type:alpha" maskUnits="userSpaceOnUse" x="0" y="0" width="35" height="35">
<rect width="35" height="35" fill="#D9D9D9"/>
</mask>
<g mask="url(#mask0_309_3941)">
<path d="M11.1561 30.1875C10.2082 30.1875 9.40001 29.8533 8.73161 29.1849C8.06321 28.5165 7.729 27.7083 7.729 26.7604V8.96875C7.729 7.80208 8.13005 6.81771 8.93213 6.01562C9.73421 5.21354 10.7186 4.8125 11.8853 4.8125H27.2707V24.3542C26.6144 24.3542 26.0493 24.5911 25.5754 25.0651C25.1014 25.5391 24.8644 26.1042 24.8644 26.7604C24.8644 27.4167 25.1014 27.9818 25.5754 28.4557C26.0493 28.9297 26.6144 29.1667 27.2707 29.1667V30.1875H11.1561ZM8.74984 24.3177C9.06581 24.0017 9.42432 23.7587 9.82536 23.5885C10.2264 23.4184 10.67 23.3333 11.1561 23.3333H12.3957V5.83333H11.8853C11.0346 5.83333 10.2993 6.14323 9.67952 6.76302C9.05973 7.38281 8.74984 8.11806 8.74984 8.96875V24.3177ZM13.4165 23.3333H26.2498V5.83333H13.4165V23.3333ZM11.1561 29.1667H24.828C24.512 28.8507 24.2689 28.4922 24.0988 28.0911C23.9287 27.6901 23.8436 27.2465 23.8436 26.7604C23.8436 26.2986 23.9287 25.8611 24.0988 25.4479C24.2689 25.0347 24.512 24.6701 24.828 24.3542H11.1561C10.4755 24.3542 9.90435 24.5911 9.44255 25.0651C8.98074 25.5391 8.74984 26.1042 8.74984 26.7604C8.74984 27.441 8.98074 28.0122 9.44255 28.474C9.90435 28.9358 10.4755 29.1667 11.1561 29.1667Z" fill="#101763"/>
</g>
</svg>
