<svg width="35" height="35" viewBox="0 0 35 35" fill="none" xmlns="http://www.w3.org/2000/svg">
<mask id="mask0_309_3938" style="mask-type:alpha" maskUnits="userSpaceOnUse" x="0" y="0" width="35" height="35">
<rect width="35" height="35" fill="#D9D9D9"/>
</mask>
<g mask="url(#mask0_309_3938)">
<path d="M8.4585 30.1875C7.82655 30.1875 7.30398 29.9809 6.89079 29.5677C6.47759 29.1545 6.271 28.6319 6.271 28V9.91667C6.271 9.28472 6.47759 8.76215 6.89079 8.34896C7.30398 7.93576 7.82655 7.72917 8.4585 7.72917H11.3752V4.375H12.5418V7.72917H22.6043V4.375H23.6252V7.72917H26.5418C27.1738 7.72917 27.6963 7.93576 28.1095 8.34896C28.5227 8.76215 28.7293 9.28472 28.7293 9.91667V28C28.7293 28.6319 28.5227 29.1545 28.1095 29.5677C27.6963 29.9809 27.1738 30.1875 26.5418 30.1875H8.4585ZM8.4585 29.1667H26.5418C26.8335 29.1667 27.1009 29.0451 27.3439 28.8021C27.587 28.559 27.7085 28.2917 27.7085 28V15.75H7.29183V28C7.29183 28.2917 7.41336 28.559 7.65641 28.8021C7.89947 29.0451 8.16683 29.1667 8.4585 29.1667ZM7.29183 14.7292H27.7085V9.91667C27.7085 9.625 27.587 9.35764 27.3439 9.11458C27.1009 8.87153 26.8335 8.75 26.5418 8.75H8.4585C8.16683 8.75 7.89947 8.87153 7.65641 9.11458C7.41336 9.35764 7.29183 9.625 7.29183 9.91667V14.7292ZM17.5002 20.7083C17.2328 20.7083 16.9958 20.605 16.7892 20.3984C16.5826 20.1918 16.4793 19.9549 16.4793 19.6875C16.4793 19.4201 16.5826 19.1832 16.7892 18.9766C16.9958 18.77 17.2328 18.6667 17.5002 18.6667C17.7675 18.6667 18.0045 18.77 18.2111 18.9766C18.4177 19.1832 18.521 19.4201 18.521 19.6875C18.521 19.9549 18.4177 20.1918 18.2111 20.3984C18.0045 20.605 17.7675 20.7083 17.5002 20.7083ZM11.6668 20.7083C11.3995 20.7083 11.1625 20.605 10.9559 20.3984C10.7493 20.1918 10.646 19.9549 10.646 19.6875C10.646 19.4201 10.7493 19.1832 10.9559 18.9766C11.1625 18.77 11.3995 18.6667 11.6668 18.6667C11.9342 18.6667 12.1712 18.77 12.3778 18.9766C12.5844 19.1832 12.6877 19.4201 12.6877 19.6875C12.6877 19.9549 12.5844 20.1918 12.3778 20.3984C12.1712 20.605 11.9342 20.7083 11.6668 20.7083ZM23.3335 20.7083C23.0661 20.7083 22.8292 20.605 22.6226 20.3984C22.416 20.1918 22.3127 19.9549 22.3127 19.6875C22.3127 19.4201 22.416 19.1832 22.6226 18.9766C22.8292 18.77 23.0661 18.6667 23.3335 18.6667C23.6009 18.6667 23.8378 18.77 24.0444 18.9766C24.251 19.1832 24.3543 19.4201 24.3543 19.6875C24.3543 19.9549 24.251 20.1918 24.0444 20.3984C23.8378 20.605 23.6009 20.7083 23.3335 20.7083ZM17.5002 26.25C17.2328 26.25 16.9958 26.1467 16.7892 25.9401C16.5826 25.7335 16.4793 25.4965 16.4793 25.2292C16.4793 24.9618 16.5826 24.7248 16.7892 24.5182C16.9958 24.3116 17.2328 24.2083 17.5002 24.2083C17.7675 24.2083 18.0045 24.3116 18.2111 24.5182C18.4177 24.7248 18.521 24.9618 18.521 25.2292C18.521 25.4965 18.4177 25.7335 18.2111 25.9401C18.0045 26.1467 17.7675 26.25 17.5002 26.25ZM11.6668 26.25C11.3995 26.25 11.1625 26.1467 10.9559 25.9401C10.7493 25.7335 10.646 25.4965 10.646 25.2292C10.646 24.9618 10.7493 24.7248 10.9559 24.5182C11.1625 24.3116 11.3995 24.2083 11.6668 24.2083C11.9342 24.2083 12.1712 24.3116 12.3778 24.5182C12.5844 24.7248 12.6877 24.9618 12.6877 25.2292C12.6877 25.4965 12.5844 25.7335 12.3778 25.9401C12.1712 26.1467 11.9342 26.25 11.6668 26.25ZM23.3335 26.25C23.0661 26.25 22.8292 26.1467 22.6226 25.9401C22.416 25.7335 22.3127 25.4965 22.3127 25.2292C22.3127 24.9618 22.416 24.7248 22.6226 24.5182C22.8292 24.3116 23.0661 24.2083 23.3335 24.2083C23.6009 24.2083 23.8378 24.3116 24.0444 24.5182C24.251 24.7248 24.3543 24.9618 24.3543 25.2292C24.3543 25.4965 24.251 25.7335 24.0444 25.9401C23.8378 26.1467 23.6009 26.25 23.3335 26.25Z" fill="#101763"/>
</g>
</svg>
