<svg width="35" height="35" viewBox="0 0 35 35" fill="none" xmlns="http://www.w3.org/2000/svg">
<mask id="mask0_309_3944" style="mask-type:alpha" maskUnits="userSpaceOnUse" x="0" y="0" width="35" height="35">
<rect width="35" height="35" fill="#D9D9D9"/>
</mask>
<g mask="url(#mask0_309_3944)">
<path d="M4.48438 26.5418V24.646C4.48438 24.0141 4.64844 23.4854 4.97656 23.0601C5.30469 22.6347 5.74766 22.2873 6.30547 22.0177C7.49766 21.4609 8.67101 21.0062 9.82552 20.6538C10.98 20.3014 12.4566 20.1252 14.2552 20.1252C16.0538 20.1252 17.5304 20.3014 18.6849 20.6538C19.8394 21.0062 21.0128 21.4609 22.2049 22.0177C22.7628 22.2873 23.2057 22.6347 23.5339 23.0601C23.862 23.4854 24.026 24.0141 24.026 24.646V26.5418H4.48438ZM26.9427 26.5418V24.646C26.9427 23.8682 26.8096 23.1393 26.5435 22.4592C26.2776 21.7792 25.9002 21.1956 25.4115 20.7085C25.9705 20.8543 26.5174 21.0427 27.0521 21.2736C27.5868 21.5045 28.1337 21.7536 28.6927 22.021C29.2517 22.2884 29.6953 22.6549 30.0234 23.1206C30.3516 23.5863 30.5156 24.0947 30.5156 24.646V26.5418H26.9427ZM14.2552 16.3335C13.1724 16.3335 12.2455 15.948 11.4745 15.177C10.7033 14.4058 10.3177 13.4788 10.3177 12.396C10.3177 11.3132 10.7033 10.3862 11.4745 9.61495C12.2455 8.84398 13.1724 8.4585 14.2552 8.4585C15.338 8.4585 16.2649 8.84398 17.0359 9.61495C17.8071 10.3862 18.1927 11.3132 18.1927 12.396C18.1927 13.4788 17.8071 14.4058 17.0359 15.177C16.2649 15.948 15.338 16.3335 14.2552 16.3335ZM23.6615 12.396C23.6615 13.4788 23.276 14.4058 22.505 15.177C21.7338 15.948 20.8068 16.3335 19.724 16.3335C20.1692 15.7803 20.5115 15.1665 20.7506 14.492C20.9898 13.8177 21.1094 13.1176 21.1094 12.3916C21.1094 11.6654 20.9818 10.9741 20.7266 10.3179C20.4714 9.66162 20.1372 9.04183 19.724 8.4585C20.8068 8.4585 21.7338 8.84398 22.505 9.61495C23.276 10.3862 23.6615 11.3132 23.6615 12.396ZM5.50521 25.521H23.0052V24.646C23.0052 24.2814 22.9141 23.9654 22.7318 23.6981C22.5495 23.4307 22.2031 23.1634 21.6927 22.896C20.6719 22.337 19.5781 21.9055 18.4115 21.6017C17.2448 21.2979 15.8594 21.146 14.2552 21.146C12.651 21.146 11.2656 21.2979 10.099 21.6017C8.93229 21.9055 7.83854 22.337 6.81771 22.896C6.30729 23.1634 5.96094 23.4307 5.77865 23.6981C5.59635 23.9654 5.50521 24.2814 5.50521 24.646V25.521ZM14.2552 15.3127C15.0573 15.3127 15.7439 15.0271 16.3151 14.4559C16.8863 13.8847 17.1719 13.1981 17.1719 12.396C17.1719 11.5939 16.8863 10.9073 16.3151 10.3361C15.7439 9.76492 15.0573 9.47933 14.2552 9.47933C13.4531 9.47933 12.7665 9.76492 12.1953 10.3361C11.6241 10.9073 11.3385 11.5939 11.3385 12.396C11.3385 13.1981 11.6241 13.8847 12.1953 14.4559C12.7665 15.0271 13.4531 15.3127 14.2552 15.3127Z" fill="#101763"/>
</g>
</svg>
