<svg width="35" height="35" viewBox="0 0 35 35" fill="none" xmlns="http://www.w3.org/2000/svg">
<mask id="mask0_309_3947" style="mask-type:alpha" maskUnits="userSpaceOnUse" x="0" y="0" width="35" height="35">
<rect width="35" height="35" fill="#D9D9D9"/>
</mask>
<g mask="url(#mask0_309_3947)">
<path d="M11.7398 26.0311H15.6773V25.0103H12.7607V23.1144H15.6773V19.1769H11.7398V20.1978H14.6565V22.0936H11.7398V26.0311ZM22.2398 26.0311H23.2607V19.1769H22.2398V22.0936H20.344V19.1769H19.3232V23.1144H22.2398V26.0311ZM29.6773 15.8228V27.4894C29.6773 28.1214 29.4708 28.6439 29.0576 29.0571C28.6444 29.4703 28.1218 29.6769 27.4898 29.6769H7.51068C6.87874 29.6769 6.35617 29.4703 5.94297 29.0571C5.52978 28.6439 5.32318 28.1214 5.32318 27.4894V15.7498C4.69124 15.3123 4.23551 14.7351 3.95599 14.0181C3.67648 13.3011 3.6704 12.5415 3.93776 11.7394L5.32318 7.14567C5.51762 6.56234 5.82144 6.11268 6.23464 5.79671C6.64783 5.48074 7.1704 5.32275 7.80235 5.32275H27.1253C27.7572 5.32275 28.2798 5.46859 28.693 5.76025C29.1062 6.05192 29.41 6.48942 29.6044 7.07275L31.0628 11.7394C31.3301 12.5415 31.324 13.3132 31.0445 14.0545C30.765 14.7958 30.3093 15.3853 29.6773 15.8228ZM20.7086 15.5311C21.7294 15.5311 22.489 15.2576 22.9872 14.7108C23.4855 14.1639 23.6982 13.6109 23.6253 13.0519L22.6044 6.34359H18.0107V12.6873C18.0107 13.4651 18.278 14.1335 18.8128 14.6925C19.3475 15.2516 19.9794 15.5311 20.7086 15.5311ZM14.1461 15.5311C14.9968 15.5311 15.6834 15.2516 16.206 14.6925C16.7286 14.1335 16.9898 13.4651 16.9898 12.6873V6.34359H12.3961L11.3753 13.1978C11.3267 13.6109 11.5454 14.1031 12.0315 14.6743C12.5176 15.2455 13.2225 15.5311 14.1461 15.5311ZM7.65651 15.5311C8.36137 15.5311 8.95686 15.2941 9.44297 14.8201C9.92908 14.3462 10.2329 13.7568 10.3544 13.0519L11.3023 6.34359H7.80235C7.38915 6.34359 7.06103 6.43473 6.81797 6.61702C6.57492 6.79932 6.39263 7.07275 6.2711 7.43734L4.9586 11.9582C4.69124 12.8089 4.80061 13.617 5.28672 14.3826C5.77283 15.1483 6.56276 15.5311 7.65651 15.5311ZM27.344 15.5311C28.2676 15.5311 29.0211 15.1726 29.6044 14.4556C30.1878 13.7386 30.3336 12.9061 30.0419 11.9582L28.6565 7.36442C28.535 6.99984 28.3527 6.73855 28.1096 6.58057C27.8666 6.42258 27.5385 6.34359 27.1253 6.34359H23.6982L24.6461 13.0519C24.7676 13.7568 25.0714 14.3462 25.5576 14.8201C26.0437 15.2941 26.6392 15.5311 27.344 15.5311ZM7.51068 28.6561H27.4898C27.8301 28.6561 28.1096 28.5467 28.3284 28.328C28.5471 28.1092 28.6565 27.8297 28.6565 27.4894V16.3332C28.4378 16.4061 28.219 16.4608 28.0003 16.4972C27.7815 16.5337 27.5628 16.5519 27.344 16.5519C26.6878 16.5519 26.1105 16.4182 25.6122 16.1509C25.114 15.8835 24.6461 15.4582 24.2086 14.8748C23.844 15.3609 23.3822 15.762 22.8232 16.078C22.2642 16.3939 21.5593 16.5519 20.7086 16.5519C20.1496 16.5519 19.6148 16.4122 19.1044 16.1326C18.594 15.8531 18.0593 15.4339 17.5003 14.8748C16.9898 15.4339 16.4308 15.8531 15.8232 16.1326C15.2155 16.4122 14.6565 16.5519 14.1461 16.5519C13.5628 16.5519 12.9794 16.4365 12.3961 16.2056C11.8128 15.9747 11.3023 15.5311 10.8648 14.8748C10.0871 15.6526 9.42474 16.1266 8.87787 16.2967C8.33099 16.4669 7.92387 16.5519 7.65651 16.5519C7.43776 16.5519 7.21901 16.5337 7.00026 16.4972C6.78151 16.4608 6.56276 16.4061 6.34401 16.3332V27.4894C6.34401 27.8297 6.45339 28.1092 6.67214 28.328C6.89089 28.5467 7.1704 28.6561 7.51068 28.6561Z" fill="#101763"/>
</g>
</svg>
