<svg width="1337" height="316" viewBox="0 0 1337 316" fill="none" xmlns="http://www.w3.org/2000/svg">
<path d="M214.637 244.824C198.941 255.922 179.581 261.413 156.56 261.413C140.863 261.413 127.027 258.815 115.109 253.62C103.191 248.425 93.1335 241.104 84.9945 231.717C76.8555 222.331 70.7512 211.291 66.6817 198.716C62.6122 186.141 60.5775 172.504 60.5775 157.745C60.5775 142.986 62.6122 128.935 66.6817 116.361C70.7512 103.786 76.7392 92.8641 84.5875 83.5954C92.4358 74.3267 102.261 67.0652 114.062 61.87C125.864 56.6748 139.177 54.0772 154.06 54.0772C168.943 54.0772 182.314 56.5568 194.232 61.4568C206.149 66.3568 215.974 73.5002 223.706 82.7689C231.438 92.0376 236.264 103.55 238.24 117.187H298.876C296.318 93.6906 288.877 73.205 276.552 55.7303C264.227 38.2555 247.658 24.5591 226.904 14.7591C206.149 4.90001 181.849 0 154.06 0C126.271 0 104.296 4.42772 84.8201 13.3422C65.2864 22.1976 49.2991 34.0639 36.8581 48.764C24.3589 63.5231 15.1153 79.9352 9.06917 97.9412C3.02305 115.947 0 134.249 0 152.845V161.878C0 178.821 2.9649 196.237 8.83662 214.125C14.7665 232.013 23.9519 248.661 36.393 264.069C48.8921 279.478 64.9958 291.935 84.8201 301.321C104.586 310.767 128.538 315.431 156.56 315.431C184.581 315.431 210.858 310.118 231.904 299.491C252.949 288.806 269.517 274.637 281.552 256.867C293.586 239.097 301.027 219.556 303.876 198.303H243.24C239.868 218.257 230.334 233.784 214.637 244.824Z" fill="url(#paint0_linear_3584_3022)"/>
<path d="M457.586 78.2817H455.144C437.936 78.2817 423.751 82.3552 412.589 90.5613C402.183 98.177 394.218 109.099 388.579 123.149V8.6189H332.478V307.756H388.579V179.116C388.579 164.357 392.823 152.431 401.311 143.281C409.798 134.13 420.902 129.584 434.564 129.584C447.238 129.584 457.586 133.717 465.667 142.1C473.748 150.424 477.759 161.582 477.759 175.515V307.874H533.86V180.828C533.86 147.531 527.407 122.146 514.501 104.612C501.595 87.1372 482.643 78.3998 457.586 78.3998" fill="url(#paint1_linear_3584_3022)"/>
<path d="M647.637 133.355C656.241 127.511 666.706 124.559 679.089 124.559C691.471 124.559 701.703 127.275 709.726 132.765C717.807 138.255 723.911 145.989 728.097 156.084C730.481 161.811 732.05 168.305 733.097 175.33H623.104C624.208 169.072 625.836 163.346 627.987 158.092C632.406 147.465 638.975 139.2 647.579 133.296M738.562 93.1517C722.574 82.6433 702.692 77.389 679.03 77.389C661.008 77.389 645.079 80.577 631.243 87.012C617.348 93.4469 605.896 102.007 596.768 112.811C587.641 123.614 580.665 135.894 576.014 149.709C571.305 163.523 568.979 177.751 568.979 192.51V200.303C568.979 214.53 571.305 228.463 576.014 242.1C580.723 255.738 587.699 268.076 597.001 279.175C606.303 290.274 617.988 299.07 632.115 305.623C646.242 312.176 662.694 315.423 681.53 315.423C700.366 315.423 715.598 312.295 729.725 306.037C743.852 299.779 755.479 290.864 764.606 279.411C773.734 267.958 779.954 254.557 783.152 239.208H731.12C728.678 247.414 723.214 254.321 714.551 259.929C705.947 265.538 694.902 268.312 681.472 268.312C668.043 268.312 656.474 265.243 647.579 259.103C638.684 252.963 632.115 244.521 627.813 233.717C625.022 226.692 623.22 218.899 622.232 210.575H786.756V189.676C786.756 170.017 782.745 151.657 774.664 134.536C766.583 117.475 754.549 103.66 738.562 93.1517Z" fill="url(#paint2_linear_3584_3022)"/>
<path d="M927.491 261.003H907.376L855.403 85.2522H797.732L866.333 307.701H882.843H915.632H921.213H942.142H966.849L1026.15 85.2522H972.082L927.491 261.003Z" fill="url(#paint3_linear_3584_3022)"/>
<path d="M1280.96 8.6189H1253.52V51.2431H1280.96V307.697H1337V51.2431V8.6189H1280.96Z" fill="url(#paint4_linear_3584_3022)"/>
<path d="M1168 225.403C1167.48 237.387 1165.04 246.892 1160.74 253.858C1156.44 260.825 1150.97 265.725 1144.4 268.558C1137.83 271.451 1130.62 272.868 1122.83 272.868C1109.93 272.868 1100.04 269.739 1093.18 263.481C1086.32 257.224 1082.89 249.017 1082.89 238.863C1082.89 228.709 1086.32 220.562 1093.18 214.304C1100.04 208.046 1109.93 204.917 1122.83 204.917H1168V225.403ZM1078.65 84.5423V127.107H1168V170.499H1123.59C1104.23 170.499 1087.25 173.097 1072.72 178.292C1058.19 183.487 1047.02 191.28 1039.23 201.67C1031.44 212.061 1027.55 225.462 1027.55 241.874C1027.55 256.869 1030.8 269.739 1037.43 280.366C1044 290.992 1053.24 299.198 1065.05 304.925C1076.85 310.651 1090.74 313.544 1106.61 313.544C1122.48 313.544 1134.93 310.769 1145.56 305.161C1156.2 299.553 1164.52 291.465 1170.56 280.779C1173.29 275.938 1175.45 270.389 1177.25 264.544V307.818H1222.01V84.4833H1078.59L1078.65 84.5423Z" fill="url(#paint5_linear_3584_3022)"/>
<defs>
<linearGradient id="paint0_linear_3584_3022" x1="185.121" y1="-93" x2="220.052" y2="296.027" gradientUnits="userSpaceOnUse">
<stop stop-color="#222222"/>
<stop offset="1"/>
</linearGradient>
<linearGradient id="paint1_linear_3584_3022" x1="455.16" y1="-79.6119" x2="502.207" y2="286.393" gradientUnits="userSpaceOnUse">
<stop stop-color="#222222"/>
<stop offset="1"/>
</linearGradient>
<linearGradient id="paint2_linear_3584_3022" x1="701.649" y1="7.20823" x2="729.382" y2="300.525" gradientUnits="userSpaceOnUse">
<stop stop-color="#222222"/>
<stop offset="1"/>
</linearGradient>
<linearGradient id="paint3_linear_3584_3022" x1="936.883" y1="19.6666" x2="960.017" y2="294.28" gradientUnits="userSpaceOnUse">
<stop stop-color="#222222"/>
<stop offset="1"/>
</linearGradient>
<linearGradient id="paint4_linear_3584_3022" x1="1304.37" y1="-79.5597" x2="1409.51" y2="259.692" gradientUnits="userSpaceOnUse">
<stop stop-color="#222222"/>
<stop offset="1"/>
</linearGradient>
<linearGradient id="paint5_linear_3584_3022" x1="1146.02" y1="16.9482" x2="1174.74" y2="298.805" gradientUnits="userSpaceOnUse">
<stop stop-color="#222222"/>
<stop offset="1"/>
</linearGradient>
</defs>
</svg>
