<svg width="256" height="53" viewBox="0 0 256 53" fill="none" xmlns="http://www.w3.org/2000/svg">
<rect width="256" height="53" rx="26.5" fill="#101763"/>
<path d="M39.08 31.16C38.344 31.16 37.6507 31.0213 37 30.744C36.3493 30.4667 35.7787 30.0773 35.288 29.576C34.808 29.064 34.424 28.456 34.136 27.752C33.8587 27.048 33.72 26.264 33.72 25.4C33.72 24.536 33.8587 23.752 34.136 23.048C34.424 22.344 34.808 21.7413 35.288 21.24C35.7787 20.728 36.3493 20.3333 37 20.056C37.6507 19.7787 38.344 19.64 39.08 19.64C39.784 19.64 40.4187 19.752 40.984 19.976C41.5493 20.1893 42.0453 20.4827 42.472 20.856C42.8987 21.2187 43.2507 21.6347 43.528 22.104C43.8053 22.5733 44.0027 23.0587 44.12 23.56H42.36C42.0827 22.8027 41.6453 22.2267 41.048 21.832C40.4507 21.4373 39.7947 21.24 39.08 21.24C38.5573 21.24 38.072 21.336 37.624 21.528C37.176 21.72 36.7867 21.9973 36.456 22.36C36.1253 22.7227 35.864 23.16 35.672 23.672C35.4907 24.184 35.4 24.76 35.4 25.4C35.4 26.04 35.4907 26.616 35.672 27.128C35.864 27.64 36.1253 28.0773 36.456 28.44C36.7867 28.8027 37.176 29.08 37.624 29.272C38.072 29.464 38.5573 29.56 39.08 29.56C39.5387 29.56 39.9493 29.4907 40.312 29.352C40.6747 29.2133 40.9893 29.032 41.256 28.808C41.5333 28.584 41.7627 28.328 41.944 28.04C42.1253 27.752 42.264 27.4587 42.36 27.16H44.12C44.024 27.5973 43.848 28.056 43.592 28.536C43.336 29.0053 43 29.4373 42.584 29.832C42.168 30.216 41.6667 30.536 41.08 30.792C40.504 31.0373 39.8373 31.16 39.08 31.16ZM48.9275 31.16C48.4475 31.16 48.0102 31.0853 47.6155 30.936C47.2208 30.776 46.8848 30.552 46.6075 30.264C46.3302 29.976 46.1115 29.624 45.9515 29.208C45.8022 28.792 45.7275 28.3227 45.7275 27.8V23H47.3275V27.8C47.3275 28.056 47.3755 28.3013 47.4715 28.536C47.5675 28.7707 47.7008 28.9787 47.8715 29.16C48.0422 29.3307 48.2448 29.4693 48.4795 29.576C48.7142 29.672 48.9702 29.72 49.2475 29.72C49.5462 29.72 49.8235 29.672 50.0795 29.576C50.3355 29.4693 50.5542 29.3307 50.7355 29.16C50.9168 28.9787 51.0608 28.7707 51.1675 28.536C51.2742 28.3013 51.3275 28.056 51.3275 27.8V23H52.9275V31H51.4875L51.3275 30.2H51.2475C51.0768 30.3813 50.8795 30.5413 50.6555 30.68C50.4635 30.7973 50.2182 30.904 49.9195 31C49.6315 31.1067 49.3008 31.16 48.9275 31.16ZM57.8888 31.16C57.2488 31.16 56.7101 31.0693 56.2728 30.888C55.8354 30.696 55.4781 30.472 55.2008 30.216C54.9341 29.9493 54.7421 29.672 54.6248 29.384C54.5074 29.0853 54.4488 28.824 54.4488 28.6H56.0488C56.0488 28.7173 56.0808 28.8507 56.1448 29C56.2194 29.1387 56.3314 29.2667 56.4808 29.384C56.6408 29.5013 56.8328 29.6027 57.0568 29.688C57.2914 29.7627 57.5688 29.8 57.8888 29.8C58.4861 29.8 58.9128 29.688 59.1688 29.464C59.4354 29.24 59.5688 29.0053 59.5688 28.76C59.5688 28.4827 59.4781 28.2587 59.2968 28.088C59.1261 27.9173 58.8168 27.7947 58.3688 27.72L56.9288 27.48C56.1608 27.352 55.5794 27.1067 55.1848 26.744C54.8008 26.3707 54.6088 25.8427 54.6088 25.16C54.6088 24.84 54.6728 24.5413 54.8008 24.264C54.9394 23.976 55.1368 23.7307 55.3928 23.528C55.6594 23.3147 55.9901 23.1493 56.3848 23.032C56.7901 22.904 57.2648 22.84 57.8088 22.84C58.3848 22.84 58.8808 22.9307 59.2968 23.112C59.7128 23.2827 60.0541 23.496 60.3208 23.752C60.5874 24.008 60.7794 24.28 60.8968 24.568C61.0248 24.8453 61.0888 25.096 61.0888 25.32H59.4888C59.4888 25.2027 59.4568 25.08 59.3928 24.952C59.3288 24.8133 59.2274 24.6907 59.0888 24.584C58.9608 24.4667 58.7901 24.376 58.5768 24.312C58.3634 24.2373 58.1074 24.2 57.8088 24.2C57.2434 24.2 56.8328 24.3013 56.5768 24.504C56.3314 24.696 56.2088 24.9147 56.2088 25.16C56.2088 25.4053 56.3154 25.608 56.5288 25.768C56.7528 25.928 57.0461 26.0453 57.4088 26.12L58.8488 26.36C60.3954 26.616 61.1688 27.416 61.1688 28.76C61.1688 29.08 61.0994 29.384 60.9608 29.672C60.8328 29.96 60.6354 30.216 60.3688 30.44C60.1021 30.664 59.7608 30.84 59.3448 30.968C58.9288 31.096 58.4434 31.16 57.8888 31.16ZM64.8619 31C64.2965 31 63.8592 30.8507 63.5499 30.552C63.2512 30.2533 63.1019 29.8427 63.1019 29.32V24.52H61.8219V23H63.1019V20.76H64.7019V23H66.5419V24.52H64.7019V29.08C64.7019 29.4 64.8619 29.56 65.1819 29.56H66.5419V31L64.8619 31ZM71.5931 31.16C71.0171 31.16 70.4838 31.0587 69.9931 30.856C69.5025 30.6533 69.0758 30.3707 68.7131 30.008C68.3611 29.6453 68.0838 29.208 67.8811 28.696C67.6891 28.184 67.5931 27.6187 67.5931 27C67.5931 26.3813 67.6891 25.816 67.8811 25.304C68.0838 24.792 68.3611 24.3547 68.7131 23.992C69.0758 23.6293 69.5025 23.3467 69.9931 23.144C70.4838 22.9413 71.0171 22.84 71.5931 22.84C72.1691 22.84 72.7025 22.9413 73.1931 23.144C73.6838 23.3467 74.1051 23.6293 74.4571 23.992C74.8198 24.3547 75.0971 24.792 75.2891 25.304C75.4918 25.816 75.5931 26.3813 75.5931 27C75.5931 27.6187 75.4918 28.184 75.2891 28.696C75.0971 29.208 74.8198 29.6453 74.4571 30.008C74.1051 30.3707 73.6838 30.6533 73.1931 30.856C72.7025 31.0587 72.1691 31.16 71.5931 31.16ZM71.5931 29.72C71.9345 29.72 72.2491 29.656 72.5371 29.528C72.8358 29.4 73.0918 29.2187 73.3051 28.984C73.5185 28.7493 73.6838 28.4667 73.8011 28.136C73.9291 27.7947 73.9931 27.416 73.9931 27C73.9931 26.584 73.9291 26.2107 73.8011 25.88C73.6838 25.5387 73.5185 25.2507 73.3051 25.016C73.0918 24.7813 72.8358 24.6 72.5371 24.472C72.2491 24.344 71.9345 24.28 71.5931 24.28C71.2518 24.28 70.9318 24.344 70.6331 24.472C70.3451 24.6 70.0945 24.7813 69.8811 25.016C69.6678 25.2507 69.4971 25.5387 69.3691 25.88C69.2518 26.2107 69.1931 26.584 69.1931 27C69.1931 27.416 69.2518 27.7947 69.3691 28.136C69.4971 28.4667 69.6678 28.7493 69.8811 28.984C70.0945 29.2187 70.3451 29.4 70.6331 29.528C70.9318 29.656 71.2518 29.72 71.5931 29.72ZM77.2744 23H78.7144L78.8744 23.8H78.9544C79.1144 23.6187 79.301 23.4587 79.5144 23.32C79.6957 23.2027 79.9144 23.096 80.1704 23C80.4264 22.8933 80.7144 22.84 81.0344 22.84C81.4397 22.84 81.7757 22.8987 82.0424 23.016C82.3197 23.1333 82.5437 23.2613 82.7144 23.4C82.9064 23.5707 83.0664 23.7573 83.1944 23.96H83.2744C83.4344 23.7573 83.6424 23.5707 83.8984 23.4C84.1117 23.2613 84.3837 23.1333 84.7144 23.016C85.045 22.8987 85.445 22.84 85.9144 22.84C86.3304 22.84 86.7144 22.92 87.0664 23.08C87.4184 23.2293 87.7224 23.4427 87.9784 23.72C88.2344 23.9867 88.4317 24.312 88.5704 24.696C88.7197 25.0693 88.7944 25.4853 88.7944 25.944V31H87.1944V25.96C87.1944 25.4373 87.045 25.0267 86.7464 24.728C86.4584 24.4293 86.0744 24.28 85.5944 24.28C85.349 24.28 85.1197 24.3227 84.9064 24.408C84.693 24.4933 84.5064 24.6107 84.3464 24.76C84.1864 24.9093 84.0584 25.0907 83.9624 25.304C83.877 25.5067 83.8344 25.7253 83.8344 25.96V31H82.2344V25.96C82.2344 25.4373 82.085 25.0267 81.7864 24.728C81.4984 24.4293 81.1144 24.28 80.6344 24.28C80.389 24.28 80.1597 24.3227 79.9464 24.408C79.733 24.4933 79.5464 24.6107 79.3864 24.76C79.2264 24.9093 79.0984 25.0907 79.0024 25.304C78.917 25.5067 78.8744 25.7253 78.8744 25.96V31H77.2744V23ZM90.79 23H92.39V31H90.79V23ZM90.71 19.8H92.47V21.48H90.71V19.8ZM93.9175 29.56L98.0775 24.52H93.9975V23H100.158V24.44L95.9975 29.48H100.238V31H93.9175V29.56ZM105.203 31.16C104.627 31.16 104.093 31.0587 103.603 30.856C103.112 30.6533 102.685 30.3707 102.323 30.008C101.971 29.6453 101.693 29.208 101.491 28.696C101.299 28.184 101.203 27.6187 101.203 27C101.203 26.3813 101.299 25.816 101.491 25.304C101.693 24.792 101.971 24.3547 102.323 23.992C102.685 23.6293 103.112 23.3467 103.603 23.144C104.093 22.9413 104.627 22.84 105.203 22.84C105.747 22.84 106.248 22.9413 106.707 23.144C107.176 23.336 107.581 23.608 107.923 23.96C108.275 24.312 108.547 24.728 108.739 25.208C108.941 25.688 109.043 26.2053 109.043 26.76C109.043 26.8773 109.037 26.984 109.027 27.08C109.016 27.176 109.005 27.2613 108.995 27.336C108.984 27.4213 108.973 27.496 108.963 27.56H102.803C102.888 28.2427 103.149 28.7867 103.587 29.192C104.024 29.5973 104.563 29.8 105.203 29.8C105.437 29.8 105.656 29.768 105.859 29.704C106.072 29.64 106.259 29.5547 106.419 29.448C106.589 29.3413 106.733 29.224 106.851 29.096C106.968 28.9573 107.059 28.8187 107.123 28.68H108.803C108.707 28.936 108.563 29.2133 108.371 29.512C108.179 29.8 107.933 30.0667 107.635 30.312C107.336 30.5573 106.984 30.76 106.579 30.92C106.184 31.08 105.725 31.16 105.203 31.16ZM107.523 26.36C107.437 25.72 107.187 25.2027 106.771 24.808C106.365 24.4027 105.843 24.2 105.203 24.2C104.52 24.2 103.976 24.4027 103.571 24.808C103.176 25.2027 102.92 25.72 102.803 26.36H107.523ZM114.008 31.16C113.485 31.16 113 31.064 112.552 30.872C112.104 30.68 111.714 30.4027 111.384 30.04C111.053 29.6773 110.792 29.24 110.6 28.728C110.418 28.216 110.328 27.64 110.328 27C110.328 26.36 110.418 25.784 110.6 25.272C110.792 24.76 111.053 24.3227 111.384 23.96C111.714 23.5973 112.104 23.32 112.552 23.128C113 22.936 113.485 22.84 114.008 22.84C114.392 22.84 114.722 22.8827 115 22.968C115.288 23.0533 115.528 23.16 115.72 23.288C115.922 23.4053 116.082 23.528 116.2 23.656C116.328 23.784 116.424 23.8853 116.488 23.96H116.568V19.8H118.168V31H116.728L116.568 30.04H116.488C116.424 30.1253 116.328 30.232 116.2 30.36C116.082 30.4773 115.922 30.6 115.72 30.728C115.528 30.8453 115.288 30.9467 115 31.032C114.722 31.1173 114.392 31.16 114.008 31.16ZM114.248 29.72C114.568 29.72 114.866 29.656 115.144 29.528C115.432 29.4 115.677 29.2187 115.88 28.984C116.093 28.7493 116.258 28.4667 116.376 28.136C116.504 27.7947 116.568 27.416 116.568 27C116.568 26.584 116.504 26.2107 116.376 25.88C116.258 25.5387 116.093 25.2507 115.88 25.016C115.677 24.7813 115.432 24.6 115.144 24.472C114.866 24.344 114.568 24.28 114.248 24.28C113.928 24.28 113.624 24.344 113.336 24.472C113.058 24.6 112.813 24.7813 112.6 25.016C112.397 25.2507 112.232 25.5387 112.104 25.88C111.986 26.2107 111.928 26.584 111.928 27C111.928 27.416 111.986 27.7947 112.104 28.136C112.232 28.4667 112.397 28.7493 112.6 28.984C112.813 29.2187 113.058 29.4 113.336 29.528C113.624 29.656 113.928 29.72 114.248 29.72ZM122.723 19.8H124.562L126.723 28.6H127.043L129.363 19.8H131.443L133.763 28.6H134.083L136.243 19.8H138.083L135.283 31H132.723L130.562 22.6H130.243L128.083 31H125.523L122.723 19.8ZM142.578 31.16C142.002 31.16 141.468 31.0587 140.978 30.856C140.487 30.6533 140.06 30.3707 139.698 30.008C139.346 29.6453 139.068 29.208 138.866 28.696C138.674 28.184 138.578 27.6187 138.578 27C138.578 26.3813 138.674 25.816 138.866 25.304C139.068 24.792 139.346 24.3547 139.698 23.992C140.06 23.6293 140.487 23.3467 140.978 23.144C141.468 22.9413 142.002 22.84 142.578 22.84C143.122 22.84 143.623 22.9413 144.082 23.144C144.551 23.336 144.956 23.608 145.298 23.96C145.65 24.312 145.922 24.728 146.114 25.208C146.316 25.688 146.418 26.2053 146.418 26.76C146.418 26.8773 146.412 26.984 146.402 27.08C146.391 27.176 146.38 27.2613 146.37 27.336C146.359 27.4213 146.348 27.496 146.338 27.56H140.178C140.263 28.2427 140.524 28.7867 140.962 29.192C141.399 29.5973 141.938 29.8 142.578 29.8C142.812 29.8 143.031 29.768 143.234 29.704C143.447 29.64 143.634 29.5547 143.794 29.448C143.964 29.3413 144.108 29.224 144.226 29.096C144.343 28.9573 144.434 28.8187 144.498 28.68H146.178C146.082 28.936 145.938 29.2133 145.746 29.512C145.554 29.8 145.308 30.0667 145.01 30.312C144.711 30.5573 144.359 30.76 143.954 30.92C143.559 31.08 143.1 31.16 142.578 31.16ZM144.898 26.36C144.812 25.72 144.562 25.2027 144.146 24.808C143.74 24.4027 143.218 24.2 142.578 24.2C141.895 24.2 141.351 24.4027 140.946 24.808C140.551 25.2027 140.295 25.72 140.178 26.36H144.898ZM152.343 31.16C151.959 31.16 151.623 31.1173 151.335 31.032C151.057 30.9467 150.817 30.8453 150.615 30.728C150.423 30.6 150.263 30.4773 150.135 30.36C150.017 30.232 149.927 30.1253 149.863 30.04H149.783L149.623 31H148.183V19.8H149.783V23.96H149.863C149.927 23.8853 150.017 23.784 150.135 23.656C150.263 23.528 150.423 23.4053 150.615 23.288C150.817 23.16 151.057 23.0533 151.335 22.968C151.623 22.8827 151.959 22.84 152.343 22.84C152.865 22.84 153.351 22.936 153.799 23.128C154.247 23.32 154.636 23.5973 154.967 23.96C155.297 24.3227 155.553 24.76 155.735 25.272C155.927 25.784 156.023 26.36 156.023 27C156.023 27.64 155.927 28.216 155.735 28.728C155.553 29.24 155.297 29.6773 154.967 30.04C154.636 30.4027 154.247 30.68 153.799 30.872C153.351 31.064 152.865 31.16 152.343 31.16ZM152.103 29.72C152.423 29.72 152.721 29.656 152.999 29.528C153.287 29.4 153.532 29.2187 153.735 28.984C153.948 28.7493 154.113 28.4667 154.231 28.136C154.359 27.7947 154.423 27.416 154.423 27C154.423 26.584 154.359 26.2107 154.231 25.88C154.113 25.5387 153.948 25.2507 153.735 25.016C153.532 24.7813 153.287 24.6 152.999 24.472C152.721 24.344 152.423 24.28 152.103 24.28C151.783 24.28 151.479 24.344 151.191 24.472C150.913 24.6 150.668 24.7813 150.455 25.016C150.252 25.2507 150.087 25.5387 149.959 25.88C149.841 26.2107 149.783 26.584 149.783 27C149.783 27.416 149.841 27.7947 149.959 28.136C150.087 28.4667 150.252 28.7493 150.455 28.984C150.668 29.2187 150.913 29.4 151.191 29.528C151.479 29.656 151.783 29.72 152.103 29.72ZM165.462 31.16C164.758 31.16 164.134 31.0693 163.59 30.888C163.046 30.696 162.587 30.44 162.214 30.12C161.841 29.7893 161.553 29.4053 161.35 28.968C161.158 28.5307 161.062 28.0613 161.062 27.56H162.742C162.742 27.816 162.806 28.0667 162.934 28.312C163.062 28.5573 163.243 28.7707 163.478 28.952C163.713 29.1333 163.995 29.2827 164.326 29.4C164.667 29.5067 165.046 29.56 165.462 29.56C166.379 29.56 167.035 29.4 167.43 29.08C167.825 28.76 168.022 28.36 168.022 27.88C168.022 27.0587 167.382 26.5253 166.102 26.28L163.942 25.88C163.057 25.72 162.395 25.3787 161.958 24.856C161.521 24.3333 161.302 23.688 161.302 22.92C161.302 22.4613 161.393 22.0347 161.574 21.64C161.766 21.2347 162.033 20.888 162.374 20.6C162.715 20.3013 163.131 20.0667 163.622 19.896C164.123 19.7253 164.683 19.64 165.302 19.64C166.006 19.64 166.619 19.736 167.142 19.928C167.675 20.1093 168.118 20.3653 168.47 20.696C168.822 21.016 169.089 21.3947 169.27 21.832C169.451 22.2693 169.542 22.7387 169.542 23.24H167.862C167.862 22.984 167.803 22.7333 167.686 22.488C167.569 22.2427 167.398 22.0293 167.174 21.848C166.961 21.6667 166.694 21.5227 166.374 21.416C166.054 21.2987 165.697 21.24 165.302 21.24C164.918 21.24 164.582 21.288 164.294 21.384C164.006 21.4693 163.766 21.592 163.574 21.752C163.382 21.9013 163.233 22.0773 163.126 22.28C163.03 22.4827 162.982 22.696 162.982 22.92C162.982 23.2827 163.11 23.5973 163.366 23.864C163.622 24.1307 164.054 24.3227 164.662 24.44L166.422 24.76C167.553 24.9627 168.379 25.3147 168.902 25.816C169.435 26.3067 169.702 26.9947 169.702 27.88C169.702 28.3387 169.611 28.7707 169.43 29.176C169.249 29.5707 168.982 29.9173 168.63 30.216C168.278 30.504 167.835 30.7333 167.302 30.904C166.779 31.0747 166.166 31.16 165.462 31.16ZM175.062 31.16C174.486 31.16 173.953 31.0587 173.462 30.856C172.971 30.6533 172.545 30.3707 172.182 30.008C171.83 29.6453 171.553 29.208 171.35 28.696C171.158 28.184 171.062 27.6187 171.062 27C171.062 26.3813 171.158 25.816 171.35 25.304C171.553 24.792 171.83 24.3547 172.182 23.992C172.545 23.6293 172.971 23.3467 173.462 23.144C173.953 22.9413 174.486 22.84 175.062 22.84C175.638 22.84 176.171 22.9413 176.662 23.144C177.153 23.3467 177.574 23.6293 177.926 23.992C178.289 24.3547 178.566 24.792 178.758 25.304C178.961 25.816 179.062 26.3813 179.062 27C179.062 27.6187 178.961 28.184 178.758 28.696C178.566 29.208 178.289 29.6453 177.926 30.008C177.574 30.3707 177.153 30.6533 176.662 30.856C176.171 31.0587 175.638 31.16 175.062 31.16ZM175.062 29.72C175.403 29.72 175.718 29.656 176.006 29.528C176.305 29.4 176.561 29.2187 176.774 28.984C176.987 28.7493 177.153 28.4667 177.27 28.136C177.398 27.7947 177.462 27.416 177.462 27C177.462 26.584 177.398 26.2107 177.27 25.88C177.153 25.5387 176.987 25.2507 176.774 25.016C176.561 24.7813 176.305 24.6 176.006 24.472C175.718 24.344 175.403 24.28 175.062 24.28C174.721 24.28 174.401 24.344 174.102 24.472C173.814 24.6 173.563 24.7813 173.35 25.016C173.137 25.2507 172.966 25.5387 172.838 25.88C172.721 26.2107 172.662 26.584 172.662 27C172.662 27.416 172.721 27.7947 172.838 28.136C172.966 28.4667 173.137 28.7493 173.35 28.984C173.563 29.2187 173.814 29.4 174.102 29.528C174.401 29.656 174.721 29.72 175.062 29.72ZM180.823 19.8H182.423V31H180.823V19.8ZM187.787 31.16C187.307 31.16 186.87 31.0853 186.475 30.936C186.08 30.776 185.744 30.552 185.467 30.264C185.19 29.976 184.971 29.624 184.811 29.208C184.662 28.792 184.587 28.3227 184.587 27.8V23H186.187V27.8C186.187 28.056 186.235 28.3013 186.331 28.536C186.427 28.7707 186.56 28.9787 186.731 29.16C186.902 29.3307 187.104 29.4693 187.339 29.576C187.574 29.672 187.83 29.72 188.107 29.72C188.406 29.72 188.683 29.672 188.939 29.576C189.195 29.4693 189.414 29.3307 189.595 29.16C189.776 28.9787 189.92 28.7707 190.027 28.536C190.134 28.3013 190.187 28.056 190.187 27.8V23H191.787V31H190.347L190.187 30.2H190.107C189.936 30.3813 189.739 30.5413 189.515 30.68C189.323 30.7973 189.078 30.904 188.779 31C188.491 31.1067 188.16 31.16 187.787 31.16ZM196.268 31C195.703 31 195.265 30.8507 194.956 30.552C194.657 30.2533 194.508 29.8427 194.508 29.32V24.52H193.228V23H194.508V20.76H196.108V23H197.948V24.52H196.108V29.08C196.108 29.4 196.268 29.56 196.588 29.56H197.948V31H196.268ZM199.712 23H201.312V31H199.712V23ZM199.632 19.8H201.392V21.48H199.632V19.8ZM206.999 31.16C206.423 31.16 205.89 31.0587 205.399 30.856C204.909 30.6533 204.482 30.3707 204.119 30.008C203.767 29.6453 203.49 29.208 203.287 28.696C203.095 28.184 202.999 27.6187 202.999 27C202.999 26.3813 203.095 25.816 203.287 25.304C203.49 24.792 203.767 24.3547 204.119 23.992C204.482 23.6293 204.909 23.3467 205.399 23.144C205.89 22.9413 206.423 22.84 206.999 22.84C207.575 22.84 208.109 22.9413 208.599 23.144C209.09 23.3467 209.511 23.6293 209.863 23.992C210.226 24.3547 210.503 24.792 210.695 25.304C210.898 25.816 210.999 26.3813 210.999 27C210.999 27.6187 210.898 28.184 210.695 28.696C210.503 29.208 210.226 29.6453 209.863 30.008C209.511 30.3707 209.09 30.6533 208.599 30.856C208.109 31.0587 207.575 31.16 206.999 31.16ZM206.999 29.72C207.341 29.72 207.655 29.656 207.943 29.528C208.242 29.4 208.498 29.2187 208.711 28.984C208.925 28.7493 209.09 28.4667 209.207 28.136C209.335 27.7947 209.399 27.416 209.399 27C209.399 26.584 209.335 26.2107 209.207 25.88C209.09 25.5387 208.925 25.2507 208.711 25.016C208.498 24.7813 208.242 24.6 207.943 24.472C207.655 24.344 207.341 24.28 206.999 24.28C206.658 24.28 206.338 24.344 206.039 24.472C205.751 24.6 205.501 24.7813 205.287 25.016C205.074 25.2507 204.903 25.5387 204.775 25.88C204.658 26.2107 204.599 26.584 204.599 27C204.599 27.416 204.658 27.7947 204.775 28.136C204.903 28.4667 205.074 28.7493 205.287 28.984C205.501 29.2187 205.751 29.4 206.039 29.528C206.338 29.656 206.658 29.72 206.999 29.72ZM212.681 23H214.121L214.281 23.8H214.361C214.531 23.6187 214.729 23.4587 214.953 23.32C215.145 23.2027 215.385 23.096 215.673 23C215.961 22.8933 216.297 22.84 216.681 22.84C217.161 22.84 217.598 22.92 217.993 23.08C218.387 23.2293 218.723 23.448 219.001 23.736C219.278 24.024 219.491 24.376 219.641 24.792C219.801 25.208 219.881 25.6773 219.881 26.2V31H218.281V26.2C218.281 25.944 218.233 25.6987 218.137 25.464C218.041 25.2293 217.907 25.0267 217.737 24.856C217.566 24.6747 217.363 24.536 217.129 24.44C216.894 24.3333 216.638 24.28 216.361 24.28C216.062 24.28 215.785 24.3333 215.529 24.44C215.273 24.536 215.054 24.6747 214.873 24.856C214.691 25.0267 214.547 25.2293 214.441 25.464C214.334 25.6987 214.281 25.944 214.281 26.2V31H212.681V23ZM224.764 31.16C224.124 31.16 223.585 31.0693 223.148 30.888C222.71 30.696 222.353 30.472 222.076 30.216C221.809 29.9493 221.617 29.672 221.5 29.384C221.382 29.0853 221.324 28.824 221.324 28.6H222.924C222.924 28.7173 222.956 28.8507 223.02 29C223.094 29.1387 223.206 29.2667 223.356 29.384C223.516 29.5013 223.708 29.6027 223.932 29.688C224.166 29.7627 224.444 29.8 224.764 29.8C225.361 29.8 225.788 29.688 226.044 29.464C226.31 29.24 226.444 29.0053 226.444 28.76C226.444 28.4827 226.353 28.2587 226.172 28.088C226.001 27.9173 225.692 27.7947 225.244 27.72L223.804 27.48C223.036 27.352 222.454 27.1067 222.06 26.744C221.676 26.3707 221.484 25.8427 221.484 25.16C221.484 24.84 221.548 24.5413 221.676 24.264C221.814 23.976 222.012 23.7307 222.268 23.528C222.534 23.3147 222.865 23.1493 223.26 23.032C223.665 22.904 224.14 22.84 224.684 22.84C225.26 22.84 225.756 22.9307 226.172 23.112C226.588 23.2827 226.929 23.496 227.196 23.752C227.462 24.008 227.654 24.28 227.772 24.568C227.9 24.8453 227.964 25.096 227.964 25.32H226.364C226.364 25.2027 226.332 25.08 226.268 24.952C226.204 24.8133 226.102 24.6907 225.964 24.584C225.836 24.4667 225.665 24.376 225.452 24.312C225.238 24.2373 224.982 24.2 224.684 24.2C224.118 24.2 223.708 24.3013 223.452 24.504C223.206 24.696 223.084 24.9147 223.084 25.16C223.084 25.4053 223.19 25.608 223.404 25.768C223.628 25.928 223.921 26.0453 224.284 26.12L225.724 26.36C227.27 26.616 228.044 27.416 228.044 28.76C228.044 29.08 227.974 29.384 227.836 29.672C227.708 29.96 227.51 30.216 227.244 30.44C226.977 30.664 226.636 30.84 226.22 30.968C225.804 31.096 225.318 31.16 224.764 31.16Z" fill="white"/>
</svg>
