<svg width="229" height="55" viewBox="0 0 229 55" fill="none" xmlns="http://www.w3.org/2000/svg">
<rect x="0.45752" width="228" height="53" rx="26.5" transform="rotate(0.494661 0.45752 0)" fill="#95BE46"/>
<path d="M34.4853 20.0945L41.845 20.158L41.8312 21.758L36.1514 21.7089L36.1238 24.9088L41.4836 24.9551L41.4697 26.555L36.1099 26.5088L36.0823 29.7086L41.7621 29.7577L41.7483 31.3576L34.3886 31.2941L34.4853 20.0945ZM43.3913 26.0916L48.6711 26.1372L48.6587 27.5771L43.3789 27.5316L43.3913 26.0916ZM53.9827 31.6233C53.4067 31.6183 52.8743 31.5124 52.3854 31.3055C51.8965 31.0986 51.4723 30.8122 51.1128 30.4464C50.7639 30.0807 50.4903 29.641 50.2921 29.1273C50.1045 28.6137 50.0134 28.0475 50.0188 27.4289C50.0241 26.8102 50.125 26.2458 50.3214 25.7354C50.5285 25.2252 50.8096 24.7903 51.1647 24.4307C51.5305 24.0711 51.9596 23.7922 52.452 23.5937C52.9444 23.3953 53.4786 23.2986 54.0545 23.3036C54.6518 23.3087 55.1683 23.4145 55.6038 23.621C56.0395 23.8167 56.4001 24.0598 56.6856 24.3503C56.9818 24.6409 57.2084 24.9575 57.3654 25.3002C57.5332 25.6324 57.6479 25.9374 57.7095 26.2152L56.1096 26.2014C56.0472 26.0195 55.958 25.8428 55.8422 25.6711C55.737 25.4995 55.5996 25.3437 55.4302 25.2035C55.2714 25.0635 55.075 24.9551 54.841 24.8784C54.607 24.7911 54.3408 24.7461 54.0421 24.7435C53.7008 24.7406 53.3802 24.8018 53.0805 24.9272C52.7914 25.0527 52.5392 25.2319 52.3238 25.4647C52.1085 25.6975 51.9353 25.984 51.8044 26.3243C51.6842 26.6539 51.6223 27.0267 51.6187 27.4427C51.6151 27.8587 51.6705 28.2378 51.7849 28.5802C51.91 28.9119 52.0782 29.1961 52.2895 29.4326C52.5008 29.6691 52.7499 29.8526 53.0368 29.983C53.3344 30.1136 53.6538 30.1804 53.9951 30.1833C54.3151 30.1861 54.5929 30.1405 54.8283 30.0465C55.0745 29.9526 55.2835 29.8318 55.4555 29.6839C55.6275 29.5254 55.7623 29.3612 55.8598 29.1914C55.968 29.011 56.0441 28.841 56.0882 28.6813L57.6881 28.6951C57.6215 28.9932 57.5014 29.3176 57.3277 29.6681C57.1648 30.008 56.9327 30.326 56.6314 30.6221C56.341 30.9076 55.9762 31.1498 55.5371 31.3487C55.0982 31.5369 54.58 31.6284 53.9827 31.6233ZM62.8574 31.6999C62.2814 31.6949 61.749 31.589 61.2601 31.3821C60.7712 31.1752 60.3469 30.8888 59.9874 30.5231C59.6386 30.1574 59.365 29.7177 59.1668 29.2039C58.9792 28.6903 58.8881 28.1241 58.8934 27.5055C58.8988 26.8869 58.9997 26.3224 59.1961 25.8121C59.4031 25.3018 59.6842 24.8669 60.0394 24.5073C60.4051 24.1478 60.8342 23.8688 61.3266 23.6704C61.819 23.4719 62.3532 23.3752 62.9292 23.3802C63.5052 23.3852 64.0376 23.4911 64.5265 23.698C65.0154 23.9049 65.4343 24.1912 65.7831 24.5569C66.1427 24.9227 66.4162 25.3624 66.6038 25.876C66.802 26.3897 66.8985 26.9559 66.8931 27.5746C66.8878 28.1932 66.7816 28.7577 66.5745 29.2679C66.3781 29.7782 66.097 30.2131 65.7312 30.5727C65.3761 30.9323 64.9523 31.2113 64.4599 31.4097C63.9675 31.6081 63.4333 31.7049 62.8574 31.6999ZM62.8698 30.2599C63.2111 30.2629 63.5263 30.2016 63.8154 30.0761C64.1152 29.9507 64.3727 29.7716 64.5881 29.5387C64.8034 29.3059 64.9712 29.0247 65.0914 28.6951C65.2223 28.3548 65.2896 27.9767 65.2932 27.5608C65.2968 27.1448 65.236 26.7709 65.1109 26.4391C64.9965 26.0968 64.8336 25.8074 64.6223 25.5709C64.411 25.3344 64.1566 25.1509 63.8591 25.0203C63.5722 24.8898 63.2581 24.8231 62.9168 24.8201C62.5754 24.8172 62.2549 24.8784 61.9551 25.0038C61.666 25.1294 61.4138 25.3085 61.1985 25.5413C60.9831 25.7741 60.81 26.0607 60.679 26.4009C60.5589 26.7305 60.497 27.1033 60.4934 27.5193C60.4898 27.9353 60.5452 28.3145 60.6596 28.6568C60.7847 28.9886 60.9529 29.2727 61.1642 29.5092C61.3755 29.7457 61.6246 29.9292 61.9115 30.0597C62.209 30.1902 62.5285 30.257 62.8698 30.2599ZM68.6089 23.5892L70.0488 23.6017L70.2019 24.403L70.2819 24.4037C70.4434 24.2238 70.6315 24.0654 70.846 23.9286C71.0283 23.8128 71.2479 23.708 71.5047 23.6142C71.7617 23.5098 72.0501 23.4589 72.3701 23.4617C72.7754 23.4652 73.1109 23.5268 73.3765 23.6464C73.6528 23.7661 73.8757 23.896 74.0452 24.0362C74.2357 24.2085 74.3941 24.3965 74.5203 24.6003L74.6003 24.601C74.7621 24.3997 74.9717 24.2149 75.2292 24.0464C75.4437 23.9096 75.7168 23.7839 76.0484 23.6695C76.3801 23.555 76.7806 23.4998 77.2499 23.5038C77.6659 23.5074 78.0492 23.5907 78.3998 23.7538C78.7505 23.9061 79.0526 24.1221 79.3062 24.4016C79.5599 24.6705 79.7544 24.9975 79.8898 25.3827C80.0359 25.7573 80.107 26.1739 80.103 26.6326L80.0594 31.6884L78.4594 31.6746L78.5029 26.6348C78.5074 26.1121 78.3617 25.7002 78.0656 25.3989C77.7802 25.0978 77.3975 24.9452 76.9175 24.941C76.6722 24.9389 76.4425 24.9796 76.2284 25.0631C76.0144 25.1466 75.8267 25.2623 75.6654 25.4102C75.5041 25.5582 75.3746 25.7384 75.2767 25.9509C75.1896 26.1528 75.1451 26.3711 75.1431 26.6058L75.0995 31.6456L73.4996 31.6318L73.5431 26.5919C73.5476 26.0693 73.4018 25.6574 73.1058 25.3561C72.8204 25.055 72.4377 24.9023 71.9577 24.8982C71.7124 24.8961 71.4827 24.9368 71.2686 25.0202C71.0545 25.1037 70.8669 25.2195 70.7056 25.3674C70.5443 25.5153 70.4147 25.6956 70.3169 25.9081C70.2298 26.11 70.1853 26.3283 70.1832 26.5629L70.1397 31.6027L68.5398 31.5889L68.6089 23.5892ZM82.124 23.7059L83.5639 23.7184L83.717 24.5197L83.797 24.5204C83.9586 24.3404 84.1466 24.1821 84.3611 24.0452C84.5435 23.9295 84.763 23.8247 85.0199 23.7309C85.2768 23.6265 85.5652 23.5756 85.8852 23.5784C86.2905 23.5819 86.626 23.6435 86.8917 23.7631C87.168 23.8828 87.3909 24.0127 87.5603 24.1529C87.7508 24.3252 87.9092 24.5132 88.0355 24.717L88.1155 24.7177C88.2772 24.5164 88.4868 24.3315 88.7443 24.1631C88.9588 24.0263 89.2319 23.9006 89.5636 23.7862C89.8952 23.6717 90.2957 23.6165 90.765 23.6205C91.181 23.6241 91.5643 23.7074 91.9149 23.8705C92.2656 24.0228 92.5678 24.2388 92.8214 24.5183C93.075 24.7872 93.2696 25.1142 93.4049 25.4994C93.551 25.874 93.6221 26.2906 93.6181 26.7493L93.5745 31.8051L91.9745 31.7913L92.0181 26.7515C92.0226 26.2288 91.8768 25.8169 91.5807 25.5156C91.2953 25.2145 90.9126 25.0618 90.4326 25.0577C90.1873 25.0556 89.9576 25.0963 89.7435 25.1798C89.5295 25.2632 89.3418 25.379 89.1805 25.5269C89.0192 25.6749 88.8897 25.8551 88.7918 26.0676C88.7048 26.2695 88.6602 26.4878 88.6582 26.7224L88.6147 31.7623L87.0147 31.7484L87.0582 26.7086C87.0627 26.186 86.917 25.774 86.6209 25.4728C86.3355 25.1717 85.9528 25.019 85.4728 25.0149C85.2275 25.0128 84.9978 25.0534 84.7837 25.1369C84.5697 25.2204 84.382 25.3361 84.2207 25.4841C84.0594 25.632 83.9299 25.8123 83.832 26.0248C83.7449 26.2267 83.7004 26.445 83.6984 26.6796L83.6548 31.7194L82.0549 31.7056L82.124 23.7059ZM99.1685 32.0134C98.5925 32.0084 98.0601 31.9025 97.5712 31.6956C97.0823 31.4887 96.6581 31.2023 96.2986 30.8366C95.9497 30.4709 95.6762 30.0312 95.4779 29.5174C95.2904 29.0038 95.1992 28.4376 95.2046 27.819C95.2099 27.2004 95.3108 26.6359 95.5072 26.1256C95.7143 25.6153 95.9954 25.1804 96.3505 24.8208C96.7163 24.4613 97.1454 24.1823 97.6378 23.9839C98.1302 23.7854 98.6644 23.6887 99.2403 23.6937C99.7843 23.6984 100.285 23.804 100.742 24.0107C101.209 24.2067 101.612 24.4822 101.951 24.8371C102.3 25.1922 102.568 25.6105 102.756 26.0921C102.954 26.5739 103.051 27.0921 103.046 27.6467C103.045 27.764 103.039 27.8706 103.028 27.9665C103.016 28.0625 103.005 28.1477 102.993 28.2223C102.982 28.3075 102.971 28.3821 102.959 28.446L96.7997 28.3928C96.8791 29.0762 97.1357 29.6224 97.5696 30.0315C98.0034 30.4406 98.5403 30.6479 99.1803 30.6534C99.4149 30.6555 99.6338 30.6253 99.8371 30.5631C100.051 30.5009 100.238 30.4172 100.399 30.3119C100.571 30.2068 100.716 30.0907 100.834 29.9637C100.953 29.826 101.045 29.6882 101.11 29.55L102.79 29.5646C102.692 29.8197 102.545 30.0958 102.351 30.3928C102.156 30.6791 101.909 30.9437 101.608 31.1864C101.307 31.4292 100.953 31.6288 100.547 31.7853C100.151 31.9419 99.6912 32.0179 99.1685 32.0134ZM101.53 27.2336C101.45 26.5929 101.204 26.0734 100.791 25.6752C100.389 25.2663 99.8686 25.0592 99.2286 25.0536C98.546 25.0477 98.0002 25.2457 97.5914 25.6475C97.1934 26.0388 96.9329 26.5539 96.81 27.1928L101.53 27.2336ZM104.764 23.9014L106.124 23.9131L106.277 24.6345L106.357 24.6352C106.422 24.5611 106.492 24.4817 106.568 24.397C106.643 24.3123 106.734 24.2331 106.842 24.1593C106.96 24.0857 107.099 24.0282 107.259 23.9869C107.43 23.9457 107.638 23.9262 107.884 23.9283L109.324 23.9408L109.311 25.3807L108.031 25.3696C106.911 25.36 106.346 25.9098 106.337 27.0191L106.295 31.9149L104.695 31.9011L104.764 23.9014ZM113.746 32.1392C113.17 32.1343 112.638 32.0283 112.149 31.8214C111.66 31.6145 111.236 31.3282 110.876 30.9624C110.527 30.5967 110.254 30.157 110.056 29.6433C109.868 29.1296 109.777 28.5635 109.782 27.9449C109.787 27.3262 109.888 26.7617 110.085 26.2514C110.292 25.7412 110.573 25.3063 110.928 24.9466C111.294 24.5871 111.723 24.3081 112.215 24.1097C112.708 23.9113 113.242 23.8146 113.818 23.8195C114.415 23.8247 114.932 23.9305 115.367 24.1369C115.803 24.3327 116.163 24.5758 116.449 24.8663C116.745 25.1569 116.972 25.4735 117.129 25.8162C117.297 26.1483 117.411 26.4533 117.473 26.7312L115.873 26.7174C115.811 26.5355 115.721 26.3587 115.606 26.1871C115.5 26.0155 115.363 25.8596 115.194 25.7195C115.035 25.5795 114.838 25.4711 114.604 25.3944C114.37 25.307 114.104 25.2621 113.805 25.2595C113.464 25.2565 113.144 25.3178 112.844 25.4432C112.555 25.5687 112.303 25.7479 112.087 25.9807C111.872 26.2135 111.699 26.5 111.568 26.8402C111.448 27.1699 111.386 27.5427 111.382 27.9587C111.379 28.3747 111.434 28.7538 111.548 29.0962C111.673 29.4279 111.842 29.712 112.053 29.9485C112.264 30.185 112.513 30.3685 112.8 30.499C113.098 30.6296 113.417 30.6963 113.759 30.6993C114.079 30.7021 114.356 30.6565 114.592 30.5625C114.838 30.4686 115.047 30.3477 115.219 30.1999C115.391 30.0414 115.526 29.8772 115.623 29.7074C115.731 29.5269 115.808 29.3569 115.852 29.1973L117.452 29.2111C117.385 29.5092 117.265 29.8335 117.091 30.184C116.928 30.524 116.696 30.842 116.395 31.1381C116.104 31.4236 115.74 31.6658 115.301 31.8646C114.862 32.0529 114.343 32.1444 113.746 32.1392ZM122.621 32.2159C122.045 32.2109 121.512 32.105 121.023 31.8981C120.535 31.6912 120.11 31.4048 119.751 31.039C119.402 30.6733 119.128 30.2336 118.93 29.7199C118.743 29.2063 118.651 28.6401 118.657 28.0215C118.662 27.4028 118.763 26.8384 118.959 26.328C119.167 25.8178 119.448 25.3829 119.803 25.0233C120.169 24.6637 120.598 24.3848 121.09 24.1863C121.582 23.9879 122.117 23.8912 122.693 23.8962C123.237 23.9009 123.737 24.0065 124.194 24.2131C124.662 24.4092 125.065 24.6847 125.403 25.0396C125.752 25.3946 126.02 25.813 126.208 26.2946C126.407 26.7763 126.503 27.2945 126.499 27.8492C126.498 27.9665 126.491 28.0731 126.48 28.169C126.468 28.2649 126.457 28.3502 126.446 28.4247C126.434 28.51 126.423 28.5845 126.412 28.6485L120.252 28.5953C120.331 29.2787 120.588 29.8249 121.022 30.234C121.456 30.6431 121.993 30.8504 122.633 30.8559C122.867 30.8579 123.086 30.8278 123.289 30.7656C123.503 30.7034 123.691 30.6197 123.851 30.5144C124.023 30.4092 124.168 30.2931 124.287 30.1662C124.405 30.0285 124.497 29.8906 124.562 29.7525L126.242 29.767C126.144 30.0222 125.997 30.2983 125.803 30.5953C125.608 30.8816 125.361 31.1461 125.06 31.3889C124.759 31.6316 124.405 31.8313 123.999 31.9877C123.603 32.1443 123.143 32.2204 122.621 32.2159ZM124.982 27.4361C124.902 26.7954 124.656 26.2759 124.244 25.8776C123.842 25.4688 123.321 25.2616 122.681 25.2561C121.998 25.2502 121.452 25.4482 121.044 25.85C120.646 26.2413 120.385 26.7564 120.262 27.3953L124.982 27.4361ZM135.911 32.3306C135.207 32.3245 134.584 32.2285 134.041 32.0425C133.499 31.8458 133.043 31.5858 132.672 31.2626C132.302 30.9287 132.017 30.5423 131.818 30.1032C131.63 29.6642 131.538 29.1941 131.542 28.6927L133.222 28.7073C133.22 28.9632 133.282 29.2145 133.408 29.4609C133.533 29.7073 133.713 29.9222 133.946 30.1056C134.179 30.2889 134.46 30.4407 134.79 30.5609C135.131 30.6705 135.509 30.7271 135.925 30.7307C136.842 30.7386 137.499 30.5843 137.897 30.2677C138.294 29.9511 138.495 29.5528 138.499 29.0728C138.506 28.2515 137.871 27.7127 136.593 27.4563L134.437 27.0377C133.553 26.87 132.894 26.523 132.461 25.9966C132.029 25.4702 131.816 24.823 131.822 24.055C131.826 23.5963 131.92 23.1705 132.105 22.7774C132.301 22.3737 132.57 22.0294 132.914 21.7443C133.258 21.4486 133.676 21.2176 134.168 21.0511C134.671 20.8848 135.232 20.8043 135.85 20.8097C136.554 20.8157 137.167 20.917 137.688 21.1135C138.22 21.2995 138.66 21.5593 139.009 21.893C139.358 22.216 139.622 22.5969 139.799 23.0358C139.977 23.4747 140.063 23.9448 140.059 24.4461L138.379 24.4316C138.381 24.1756 138.325 23.9245 138.21 23.6781C138.094 23.4318 137.926 23.217 137.703 23.0337C137.491 22.8506 137.226 22.7043 136.907 22.5948C136.588 22.4747 136.231 22.413 135.837 22.4096C135.453 22.4063 135.116 22.4514 134.827 22.5449C134.539 22.6277 134.298 22.7483 134.104 22.9067C133.911 23.0543 133.76 23.229 133.652 23.4308C133.554 23.6326 133.504 23.8455 133.502 24.0695C133.499 24.4322 133.624 24.7479 133.878 25.0168C134.132 25.2856 134.562 25.4814 135.169 25.6039L136.926 25.9391C138.055 26.1515 138.879 26.5107 139.397 27.0165C139.926 27.5118 140.187 28.202 140.179 29.0873C140.175 29.546 140.081 29.9772 139.896 30.3809C139.711 30.774 139.441 31.1184 139.087 31.414C138.732 31.6989 138.288 31.9244 137.753 32.0905C137.229 32.2566 136.615 32.3367 135.911 32.3306ZM145.511 32.4135C144.935 32.4085 144.402 32.3026 143.913 32.0957C143.424 31.8888 143 31.6024 142.641 31.2367C142.292 30.871 142.018 30.4313 141.82 29.9175C141.632 29.4039 141.541 28.8377 141.547 28.2191C141.552 27.6005 141.653 27.036 141.849 26.5257C142.056 26.0154 142.337 25.5805 142.693 25.2209C143.058 24.8614 143.487 24.5824 143.98 24.384C144.472 24.1855 145.006 24.0888 145.582 24.0938C146.158 24.0988 146.691 24.2047 147.18 24.4116C147.669 24.6185 148.087 24.9048 148.436 25.2705C148.796 25.6363 149.069 26.076 149.257 26.5896C149.455 27.1033 149.552 27.6695 149.546 28.2882C149.541 28.9068 149.435 29.4713 149.228 29.9815C149.031 30.4918 148.75 30.9267 148.384 31.2863C148.029 31.6459 147.605 31.9249 147.113 32.1233C146.621 32.3217 146.087 32.4185 145.511 32.4135ZM145.523 30.9735C145.864 30.9765 146.179 30.9152 146.469 30.7897C146.768 30.6643 147.026 30.4852 147.241 30.2523C147.457 30.0195 147.624 29.7383 147.745 29.4087C147.876 29.0684 147.943 28.6903 147.946 28.2744C147.95 27.8584 147.889 27.4845 147.764 27.1527C147.65 26.8104 147.487 26.521 147.276 26.2845C147.064 26.048 146.81 25.8645 146.512 25.7339C146.225 25.6034 145.911 25.5367 145.57 25.5337C145.229 25.5308 144.908 25.592 144.608 25.7174C144.319 25.843 144.067 26.0221 143.852 26.2549C143.636 26.4877 143.463 26.7743 143.332 27.1145C143.212 27.4441 143.15 27.8169 143.147 28.2329C143.143 28.6489 143.198 29.0281 143.313 29.3704C143.438 29.7022 143.606 29.9863 143.817 30.2228C144.029 30.4593 144.278 30.6428 144.565 30.7733C144.862 30.9038 145.182 30.9706 145.523 30.9735ZM151.37 21.1036L152.97 21.1175L152.873 32.317L151.273 32.3032L151.37 21.1036ZM158.235 32.5233C157.755 32.5192 157.318 32.4408 156.925 32.288C156.532 32.1246 156.198 31.8977 155.923 31.6073C155.648 31.317 155.432 30.9631 155.276 30.5457C155.13 30.1284 155.06 29.6585 155.064 29.1358L155.106 24.336L156.706 24.3498L156.664 29.1497C156.662 29.4056 156.708 29.6514 156.802 29.8869C156.896 30.1224 157.027 30.3315 157.196 30.5143C157.366 30.6864 157.567 30.8268 157.801 30.9355C158.035 31.0336 158.29 31.0838 158.567 31.0862C158.866 31.0887 159.144 31.0431 159.401 30.9493C159.658 30.8449 159.877 30.7081 160.06 30.539C160.243 30.3593 160.389 30.1525 160.498 29.9188C160.606 29.685 160.662 29.4402 160.664 29.1842L160.705 24.3844L162.305 24.3982L162.236 32.3979L160.796 32.3854L160.643 31.5841L160.563 31.5834C160.391 31.7633 160.192 31.9216 159.967 32.0583C159.774 32.1739 159.528 32.2785 159.228 32.3719C158.939 32.4761 158.608 32.5266 158.235 32.5233ZM166.717 32.4366C166.152 32.4317 165.716 32.2786 165.409 31.9773C165.113 31.676 164.967 31.2641 164.972 30.7414L165.013 25.9416L163.733 25.9306L163.747 24.4106L165.027 24.4217L165.046 22.1818L166.646 22.1956L166.626 24.4355L168.466 24.4514L168.453 25.9713L166.613 25.9554L166.574 30.5153C166.571 30.8352 166.73 30.9966 167.05 30.9994L168.41 31.0111L168.397 32.4511L166.717 32.4366ZM170.23 24.4666L171.83 24.4804L171.761 32.4801L170.161 32.4663L170.23 24.4666ZM170.178 21.266L171.938 21.2812L171.923 22.9612L170.163 22.946L170.178 21.266ZM177.447 32.6892C176.871 32.6842 176.338 32.5783 175.85 32.3714C175.361 32.1645 174.936 31.8782 174.577 31.5124C174.228 31.1467 173.954 30.707 173.756 30.1933C173.569 29.6796 173.478 29.1135 173.483 28.4948C173.488 27.8762 173.589 27.3117 173.786 26.8014C173.993 26.2912 174.274 25.8562 174.629 25.4966C174.995 25.1371 175.424 24.8581 175.916 24.6597C176.409 24.4613 176.943 24.3645 177.519 24.3695C178.095 24.3745 178.627 24.4804 179.116 24.6873C179.605 24.8942 180.024 25.1805 180.373 25.5462C180.732 25.912 181.006 26.3517 181.193 26.8653C181.392 27.3791 181.488 27.9453 181.483 28.5639C181.477 29.1825 181.371 29.747 181.164 30.2572C180.968 30.7675 180.686 31.2025 180.321 31.562C179.966 31.9216 179.542 32.2006 179.049 32.399C178.557 32.5975 178.023 32.6942 177.447 32.6892ZM177.459 31.2493C177.801 31.2522 178.116 31.1909 178.405 31.0654C178.705 30.94 178.962 30.7609 179.178 30.5281C179.393 30.2953 179.561 30.014 179.681 29.6844C179.812 29.3442 179.879 28.9661 179.883 28.5501C179.886 28.1341 179.825 27.7602 179.7 27.4285C179.586 27.0861 179.423 26.7967 179.212 26.5602C179.001 26.3237 178.746 26.1402 178.449 26.0096C178.162 25.8791 177.848 25.8124 177.506 25.8095C177.165 25.8065 176.844 25.8678 176.545 25.9932C176.256 26.1187 176.003 26.2978 175.788 26.5307C175.573 26.7635 175.399 27.05 175.269 27.3902C175.148 27.7198 175.086 28.0927 175.083 28.5086C175.079 28.9246 175.135 29.3038 175.249 29.6461C175.374 29.9779 175.542 30.262 175.754 30.4985C175.965 30.735 176.214 30.9185 176.501 31.049C176.799 31.1796 177.118 31.2463 177.459 31.2493ZM183.198 24.5786L184.638 24.591L184.791 25.3923L184.871 25.393C185.044 25.2132 185.242 25.0549 185.467 24.9182C185.66 24.8025 185.901 24.6979 186.19 24.6044C186.479 24.5002 186.816 24.4498 187.2 24.4531C187.68 24.4572 188.116 24.541 188.509 24.7044C188.903 24.8572 189.237 25.0787 189.512 25.3691C189.787 25.6595 189.997 26.0133 190.143 26.4306C190.299 26.848 190.375 27.318 190.37 27.8406L190.329 32.6404L188.729 32.6266L188.77 27.8268C188.773 27.5708 188.727 27.3251 188.633 27.0896C188.539 26.8541 188.407 26.6503 188.238 26.4781C188.069 26.2953 187.868 26.1549 187.634 26.0569C187.4 25.9482 187.144 25.8927 186.867 25.8903C186.568 25.8877 186.291 25.9386 186.034 26.0431C185.777 26.1369 185.557 26.2737 185.374 26.4534C185.191 26.6225 185.046 26.8239 184.937 27.0577C184.828 27.2914 184.773 27.5363 184.771 27.7923L184.729 32.5921L183.129 32.5783L183.198 24.5786ZM195.211 32.8426C194.571 32.8371 194.033 32.7417 193.597 32.5566C193.161 32.3609 192.806 32.1338 192.531 31.8754C192.266 31.6064 192.077 31.3275 191.962 31.0385C191.847 30.7388 191.791 30.477 191.793 30.253L193.393 30.2668C193.392 30.3841 193.423 30.5177 193.485 30.6676C193.559 30.8069 193.67 30.9359 193.818 31.0545C193.977 31.1732 194.168 31.2762 194.391 31.3634C194.625 31.4401 194.902 31.4799 195.222 31.4826C195.82 31.4878 196.247 31.3795 196.505 31.1577C196.774 30.936 196.909 30.7025 196.911 30.4572C196.914 30.1798 196.825 29.9551 196.645 29.7828C196.476 29.6107 196.168 29.4854 195.72 29.4068L194.282 29.1544C193.515 29.0198 192.936 28.7695 192.545 28.4034C192.164 28.0268 191.977 27.4971 191.982 26.8145C191.985 26.4945 192.052 26.1964 192.182 25.9202C192.323 25.6334 192.523 25.3898 192.781 25.1893C193.049 24.9783 193.381 24.8158 193.777 24.7019C194.183 24.5774 194.658 24.5175 195.202 24.5222C195.778 24.5272 196.274 24.6221 196.688 24.807C197.102 24.9813 197.442 25.1976 197.706 25.4558C197.971 25.7141 198.161 25.9878 198.275 26.2768C198.401 26.5552 198.463 26.8064 198.461 27.0304L196.861 27.0166C196.862 26.8993 196.831 26.7763 196.768 26.6478C196.705 26.5086 196.605 26.385 196.467 26.2772C196.34 26.1587 196.17 26.0666 195.958 26.0008C195.745 25.9243 195.489 25.8847 195.191 25.8821C194.625 25.8773 194.214 25.975 193.956 26.1755C193.709 26.3654 193.585 26.583 193.582 26.8283C193.58 27.0736 193.685 27.2772 193.897 27.439C194.12 27.601 194.412 27.7208 194.774 27.7986L196.212 28.051C197.756 28.3204 198.523 29.127 198.511 30.471C198.508 30.791 198.436 31.0944 198.295 31.3812C198.165 31.668 197.965 31.9223 197.697 32.144C197.428 32.3657 197.085 32.5388 196.668 32.6632C196.251 32.7876 195.765 32.8474 195.211 32.8426Z" fill="white"/>
</svg>
