<svg width="161" height="53" viewBox="0 0 161 53" fill="none" xmlns="http://www.w3.org/2000/svg">
<rect width="161" height="53" rx="26.5" fill="white"/>
<g clip-path="url(#clip0_3604_3074)">
<path d="M40.1153 19.1987V38.5661L38.2344 39.7301L36.3524 38.5594V19.2136L31.4781 22.2522V38.8149L38.2344 43.0004L45.0481 38.7851V22.2418L40.1153 19.1987ZM38.2344 9.00037L24.0243 17.7173V34.2827L27.7148 36.484V19.9175L38.2374 13.4391L48.7695 19.9078L48.8129 19.9324L48.8078 36.4583L52.4626 34.2815V17.7173L38.2344 9.00037Z" fill="#F37B20"/>
<path d="M52.4623 17.7169L38.2345 9.0011L24.024 17.7169L27.7138 19.9175L38.2367 13.4391L48.813 19.9332L52.4623 17.7169ZM40.1151 19.1983V25.3053L45.0479 22.241L40.1151 19.1983ZM31.4775 22.2533L36.3507 25.267V19.2135L31.4775 22.2533Z" fill="#FAB37C"/>
<path d="M74.1637 33.6555L73.1844 20.99L68.2167 33.7244H66.5984L61.6318 20.99L60.6749 33.6555H58.6704L59.923 17.7379H62.5665L67.4655 30.7957L72.3633 17.7379H74.984L76.2142 33.6555H74.1637ZM84.4847 28.0725C80.4741 28.4651 79.6321 29.5714 79.6321 30.7029C79.6321 31.6021 80.2236 32.1794 81.25 32.1794C82.4352 32.1794 83.5727 31.5797 84.4847 30.6333V28.0725ZM84.8713 33.6555L84.6436 32.1794C83.778 33.0782 82.5938 33.8861 80.8162 33.8861C78.8573 33.8861 77.6272 32.686 77.6272 30.8173C77.6272 28.0729 79.9495 26.9897 84.485 26.504V26.0426C84.485 24.6584 83.665 24.1739 82.4106 24.1739C81.0896 24.1739 79.8373 24.5892 78.6521 25.1196L78.378 23.3436C79.6769 22.8121 80.9075 22.4203 82.5938 22.4203C85.2366 22.4203 86.5116 23.5038 86.5116 25.9502V33.6559L84.8713 33.6555ZM92.5947 23.9202C91.2277 23.9202 90.3849 24.9832 90.3849 26.3193C90.3849 27.5883 91.2509 28.5787 92.5947 28.5787C93.9857 28.5787 94.8505 27.5425 94.8505 26.2266C94.8505 24.9121 93.9389 23.9202 92.5947 23.9202ZM89.6337 34.8556C89.6337 35.732 90.7502 36.3775 92.8684 36.3775C94.9874 36.3775 96.1716 35.6397 96.1716 34.7167C96.1716 34.047 95.6716 33.587 94.1225 33.3102L92.8225 33.0786C92.2313 32.9642 91.9123 32.8949 91.4794 32.8026C90.2028 33.448 89.6337 34.0939 89.6337 34.8556ZM98.1544 22.4907L98.4505 24.3355L96.3772 24.5426C96.6737 25.0507 96.8116 25.6276 96.8116 26.25C96.8116 28.604 94.8509 30.0328 92.6411 30.0328C92.3674 30.0328 92.0937 30.0098 91.8211 29.9636C91.5018 30.1718 91.2759 30.4266 91.2759 30.6336C91.2759 31.0251 91.6618 31.1186 93.5747 31.4646L94.3495 31.6017C96.6527 32.017 98.0863 32.7541 98.0863 34.4619C98.0863 36.7694 95.6025 37.8533 92.7783 37.8533C89.9527 37.8533 87.6969 36.9541 87.6969 35.0169C87.6969 33.8857 88.4716 33.0093 89.9979 32.179C89.5197 31.833 89.3155 31.4404 89.3155 31.0244C89.3155 30.4929 89.7253 29.9628 90.4537 29.5255C89.2482 28.9259 88.4257 27.75 88.4257 26.2493C88.4257 23.8736 90.3857 22.4206 92.5955 22.4206C93.6895 22.4206 94.6467 22.7428 95.3975 23.3436L98.1544 22.4907ZM103.167 24.0357C101.914 24.0357 100.842 24.9359 100.523 26.8262H105.763C105.514 25.0503 104.739 24.0357 103.167 24.0357ZM107.815 28.3727L100.433 28.3727C100.501 30.9339 101.707 32.134 103.599 32.134C105.172 32.134 106.312 31.5108 107.495 30.5644L107.791 32.41C106.631 33.3326 105.24 33.8864 103.44 33.8864C100.616 33.8864 98.4049 32.1559 98.4049 28.1191C98.4049 24.5895 100.456 22.4221 103.19 22.4221C106.356 22.4221 107.816 24.8898 107.816 27.9343L107.815 28.3727ZM116.358 33.6555V26.1576C116.358 25.0279 115.88 24.2662 114.695 24.2662C113.625 24.2662 112.531 24.9829 111.551 26.0429V33.6559H109.523V22.6512H111.141L111.391 24.2428C112.416 23.2978 113.693 22.4199 115.242 22.4199C117.291 22.4199 118.387 23.6654 118.387 25.6492V33.6548L116.358 33.6555ZM124.378 33.8403C122.464 33.8403 121.212 33.1493 121.212 30.9324V24.3821H119.57V22.6516H121.212V18.9835L123.196 18.6844V22.6508H125.54L125.815 24.3813H123.196V30.5636C123.196 31.4646 123.559 32.017 124.698 32.017C125.063 32.017 125.382 31.9943 125.632 31.9477L125.907 33.6983C125.564 33.7702 125.086 33.8403 124.378 33.8403ZM131.1 24.1508C129.14 24.1508 128.16 25.8574 128.16 28.1649C128.16 30.4266 129.185 32.179 131.1 32.179C133.105 32.179 134.106 30.4712 134.106 28.1649C134.106 25.9044 133.059 24.1508 131.1 24.1508ZM131.1 33.8864C128.206 33.8864 126.109 31.7872 126.109 28.1656C126.109 24.5422 128.206 22.4225 131.1 22.4225C134.016 22.4225 136.157 24.5422 136.157 28.1656C136.157 31.7872 134.016 33.8864 131.1 33.8864ZM137.587 22.2724H137.381V22.7402H137.575C137.752 22.7402 137.862 22.6661 137.862 22.5063C137.863 22.3525 137.764 22.2724 137.587 22.2724ZM138.001 23.6334L137.534 22.9559H137.382V23.6092H137.113V22.0258H137.588C137.918 22.0258 138.136 22.1923 138.136 22.4873C138.136 22.7149 138.014 22.8642 137.819 22.9257L138.27 23.5723L138.001 23.6334ZM137.595 21.6001C136.938 21.6001 136.414 22.056 136.414 22.8691C136.414 23.6762 136.938 24.1325 137.595 24.1325C138.259 24.1325 138.782 23.6762 138.782 22.8691C138.781 22.056 138.252 21.6001 137.595 21.6001ZM137.595 24.299C136.779 24.299 136.213 23.7262 136.213 22.8691C136.213 22.0187 136.791 21.4336 137.595 21.4336C138.409 21.4336 138.975 22.0132 138.975 22.8691C138.975 23.7202 138.397 24.299 137.595 24.299Z" fill="#171113"/>
</g>
<defs>
<clipPath id="clip0_3604_3074">
<rect width="115" height="34" fill="white" transform="translate(23.9999 9.00037)"/>
</clipPath>
</defs>
</svg>
