<svg width="223" height="53" viewBox="0 0 223 53" fill="none" xmlns="http://www.w3.org/2000/svg">
<rect width="223" height="53" rx="26.5" fill="#D81100"/>
<path d="M33.16 19.8H35L37.16 28.6H37.48L39.8 19.8H41.88L44.2 28.6H44.52L46.68 19.8H48.52L45.72 31H43.16L41 22.6H40.68L38.52 31H35.96L33.16 19.8ZM53.015 31.16C52.439 31.16 51.9057 31.0587 51.415 30.856C50.9243 30.6533 50.4977 30.3707 50.135 30.008C49.783 29.6453 49.5057 29.208 49.303 28.696C49.111 28.184 49.015 27.6187 49.015 27C49.015 26.3813 49.111 25.816 49.303 25.304C49.5057 24.792 49.783 24.3547 50.135 23.992C50.4977 23.6293 50.9243 23.3467 51.415 23.144C51.9057 22.9413 52.439 22.84 53.015 22.84C53.559 22.84 54.0603 22.9413 54.519 23.144C54.9883 23.336 55.3937 23.608 55.735 23.96C56.087 24.312 56.359 24.728 56.551 25.208C56.7537 25.688 56.855 26.2053 56.855 26.76C56.855 26.8773 56.8497 26.984 56.839 27.08C56.8283 27.176 56.8177 27.2613 56.807 27.336C56.7963 27.4213 56.7857 27.496 56.775 27.56H50.615C50.7003 28.2427 50.9617 28.7867 51.399 29.192C51.8363 29.5973 52.375 29.8 53.015 29.8C53.2497 29.8 53.4683 29.768 53.671 29.704C53.8843 29.64 54.071 29.5547 54.231 29.448C54.4017 29.3413 54.5457 29.224 54.663 29.096C54.7803 28.9573 54.871 28.8187 54.935 28.68H56.615C56.519 28.936 56.375 29.2133 56.183 29.512C55.991 29.8 55.7457 30.0667 55.447 30.312C55.1483 30.5573 54.7963 30.76 54.391 30.92C53.9963 31.08 53.5377 31.16 53.015 31.16ZM55.335 26.36C55.2497 25.72 54.999 25.2027 54.583 24.808C54.1777 24.4027 53.655 24.2 53.015 24.2C52.3323 24.2 51.7883 24.4027 51.383 24.808C50.9883 25.2027 50.7323 25.72 50.615 26.36H55.335ZM62.78 31.16C62.396 31.16 62.06 31.1173 61.772 31.032C61.4947 30.9467 61.2547 30.8453 61.052 30.728C60.86 30.6 60.7 30.4773 60.572 30.36C60.4547 30.232 60.364 30.1253 60.3 30.04H60.22L60.06 31H58.62V19.8H60.22V23.96H60.3C60.364 23.8853 60.4547 23.784 60.572 23.656C60.7 23.528 60.86 23.4053 61.052 23.288C61.2547 23.16 61.4947 23.0533 61.772 22.968C62.06 22.8827 62.396 22.84 62.78 22.84C63.3027 22.84 63.788 22.936 64.236 23.128C64.684 23.32 65.0733 23.5973 65.404 23.96C65.7347 24.3227 65.9907 24.76 66.172 25.272C66.364 25.784 66.46 26.36 66.46 27C66.46 27.64 66.364 28.216 66.172 28.728C65.9907 29.24 65.7347 29.6773 65.404 30.04C65.0733 30.4027 64.684 30.68 64.236 30.872C63.788 31.064 63.3027 31.16 62.78 31.16ZM62.54 29.72C62.86 29.72 63.1587 29.656 63.436 29.528C63.724 29.4 63.9693 29.2187 64.172 28.984C64.3853 28.7493 64.5507 28.4667 64.668 28.136C64.796 27.7947 64.86 27.416 64.86 27C64.86 26.584 64.796 26.2107 64.668 25.88C64.5507 25.5387 64.3853 25.2507 64.172 25.016C63.9693 24.7813 63.724 24.6 63.436 24.472C63.1587 24.344 62.86 24.28 62.54 24.28C62.22 24.28 61.916 24.344 61.628 24.472C61.3507 24.6 61.1053 24.7813 60.892 25.016C60.6893 25.2507 60.524 25.5387 60.396 25.88C60.2787 26.2107 60.22 26.584 60.22 27C60.22 27.416 60.2787 27.7947 60.396 28.136C60.524 28.4667 60.6893 28.7493 60.892 28.984C61.1053 29.2187 61.3507 29.4 61.628 29.528C61.916 29.656 62.22 29.72 62.54 29.72ZM71.0138 31.16C70.3738 31.16 69.8351 31.0693 69.3978 30.888C68.9604 30.696 68.6031 30.472 68.3258 30.216C68.0591 29.9493 67.8671 29.672 67.7498 29.384C67.6324 29.0853 67.5738 28.824 67.5738 28.6H69.1738C69.1738 28.7173 69.2058 28.8507 69.2698 29C69.3444 29.1387 69.4564 29.2667 69.6058 29.384C69.7658 29.5013 69.9578 29.6027 70.1818 29.688C70.4164 29.7627 70.6938 29.8 71.0138 29.8C71.6111 29.8 72.0378 29.688 72.2938 29.464C72.5604 29.24 72.6938 29.0053 72.6938 28.76C72.6938 28.4827 72.6031 28.2587 72.4218 28.088C72.2511 27.9173 71.9418 27.7947 71.4938 27.72L70.0538 27.48C69.2858 27.352 68.7044 27.1067 68.3098 26.744C67.9258 26.3707 67.7338 25.8427 67.7338 25.16C67.7338 24.84 67.7978 24.5413 67.9258 24.264C68.0644 23.976 68.2618 23.7307 68.5178 23.528C68.7844 23.3147 69.1151 23.1493 69.5098 23.032C69.9151 22.904 70.3898 22.84 70.9338 22.84C71.5098 22.84 72.0058 22.9307 72.4218 23.112C72.8378 23.2827 73.1791 23.496 73.4458 23.752C73.7124 24.008 73.9044 24.28 74.0218 24.568C74.1498 24.8453 74.2138 25.096 74.2138 25.32H72.6138C72.6138 25.2027 72.5818 25.08 72.5178 24.952C72.4538 24.8133 72.3524 24.6907 72.2138 24.584C72.0858 24.4667 71.9151 24.376 71.7018 24.312C71.4884 24.2373 71.2324 24.2 70.9338 24.2C70.3684 24.2 69.9578 24.3013 69.7018 24.504C69.4564 24.696 69.3338 24.9147 69.3338 25.16C69.3338 25.4053 69.4404 25.608 69.6538 25.768C69.8778 25.928 70.1711 26.0453 70.5338 26.12L71.9738 26.36C73.5204 26.616 74.2938 27.416 74.2938 28.76C74.2938 29.08 74.2244 29.384 74.0858 29.672C73.9578 29.96 73.7604 30.216 73.4938 30.44C73.2271 30.664 72.8858 30.84 72.4698 30.968C72.0538 31.096 71.5684 31.16 71.0138 31.16ZM75.8994 23H77.4994V31H75.8994V23ZM75.8194 19.8H77.5794V21.48H75.8194V19.8ZM81.9869 31C81.4215 31 80.9842 30.8507 80.6749 30.552C80.3762 30.2533 80.2269 29.8427 80.2269 29.32V24.52H78.9469V23H80.2269V20.76H81.8269V23H83.6669V24.52H81.8269V29.08C81.8269 29.4 81.9869 29.56 82.3069 29.56H83.6669V31H81.9869ZM88.7181 31.16C88.1421 31.16 87.6088 31.0587 87.1181 30.856C86.6275 30.6533 86.2008 30.3707 85.8381 30.008C85.4861 29.6453 85.2088 29.208 85.0061 28.696C84.8141 28.184 84.7181 27.6187 84.7181 27C84.7181 26.3813 84.8141 25.816 85.0061 25.304C85.2088 24.792 85.4861 24.3547 85.8381 23.992C86.2008 23.6293 86.6275 23.3467 87.1181 23.144C87.6088 22.9413 88.1421 22.84 88.7181 22.84C89.2621 22.84 89.7635 22.9413 90.2221 23.144C90.6915 23.336 91.0968 23.608 91.4381 23.96C91.7901 24.312 92.0621 24.728 92.2541 25.208C92.4568 25.688 92.5581 26.2053 92.5581 26.76C92.5581 26.8773 92.5528 26.984 92.5421 27.08C92.5315 27.176 92.5208 27.2613 92.5101 27.336C92.4995 27.4213 92.4888 27.496 92.4781 27.56H86.3181C86.4035 28.2427 86.6648 28.7867 87.1021 29.192C87.5395 29.5973 88.0781 29.8 88.7181 29.8C88.9528 29.8 89.1715 29.768 89.3741 29.704C89.5875 29.64 89.7741 29.5547 89.9341 29.448C90.1048 29.3413 90.2488 29.224 90.3661 29.096C90.4835 28.9573 90.5741 28.8187 90.6381 28.68H92.3181C92.2221 28.936 92.0781 29.2133 91.8861 29.512C91.6941 29.8 91.4488 30.0667 91.1501 30.312C90.8515 30.5573 90.4995 30.76 90.0941 30.92C89.6995 31.08 89.2408 31.16 88.7181 31.16ZM91.0381 26.36C90.9528 25.72 90.7021 25.2027 90.2861 24.808C89.8808 24.4027 89.3581 24.2 88.7181 24.2C88.0355 24.2 87.4915 24.4027 87.0861 24.808C86.6915 25.2027 86.4355 25.72 86.3181 26.36H91.0381ZM98.1688 19.8H102.089C102.846 19.8 103.55 19.9387 104.201 20.216C104.862 20.4933 105.433 20.8827 105.913 21.384C106.393 21.8747 106.766 22.4613 107.033 23.144C107.31 23.8267 107.449 24.5787 107.449 25.4C107.449 26.2213 107.31 26.9733 107.033 27.656C106.766 28.3387 106.393 28.9307 105.913 29.432C105.433 29.9227 104.862 30.3067 104.201 30.584C103.55 30.8613 102.846 31 102.089 31H98.1688V19.8ZM102.089 29.4C102.611 29.4 103.097 29.304 103.545 29.112C103.993 28.92 104.382 28.648 104.713 28.296C105.043 27.944 105.299 27.5227 105.481 27.032C105.673 26.5413 105.769 25.9973 105.769 25.4C105.769 24.8027 105.673 24.2587 105.481 23.768C105.299 23.2773 105.043 22.856 104.713 22.504C104.382 22.152 103.993 21.88 103.545 21.688C103.097 21.496 102.611 21.4 102.089 21.4H99.8488V29.4H102.089ZM112.812 31.16C112.236 31.16 111.703 31.0587 111.212 30.856C110.721 30.6533 110.295 30.3707 109.932 30.008C109.58 29.6453 109.303 29.208 109.1 28.696C108.908 28.184 108.812 27.6187 108.812 27C108.812 26.3813 108.908 25.816 109.1 25.304C109.303 24.792 109.58 24.3547 109.932 23.992C110.295 23.6293 110.721 23.3467 111.212 23.144C111.703 22.9413 112.236 22.84 112.812 22.84C113.356 22.84 113.857 22.9413 114.316 23.144C114.785 23.336 115.191 23.608 115.532 23.96C115.884 24.312 116.156 24.728 116.348 25.208C116.551 25.688 116.652 26.2053 116.652 26.76C116.652 26.8773 116.647 26.984 116.636 27.08C116.625 27.176 116.615 27.2613 116.604 27.336C116.593 27.4213 116.583 27.496 116.572 27.56H110.412C110.497 28.2427 110.759 28.7867 111.196 29.192C111.633 29.5973 112.172 29.8 112.812 29.8C113.047 29.8 113.265 29.768 113.468 29.704C113.681 29.64 113.868 29.5547 114.028 29.448C114.199 29.3413 114.343 29.224 114.46 29.096C114.577 28.9573 114.668 28.8187 114.732 28.68H116.412C116.316 28.936 116.172 29.2133 115.98 29.512C115.788 29.8 115.543 30.0667 115.244 30.312C114.945 30.5573 114.593 30.76 114.188 30.92C113.793 31.08 113.335 31.16 112.812 31.16ZM115.132 26.36C115.047 25.72 114.796 25.2027 114.38 24.808C113.975 24.4027 113.452 24.2 112.812 24.2C112.129 24.2 111.585 24.4027 111.18 24.808C110.785 25.2027 110.529 25.72 110.412 26.36H115.132ZM117.221 23H118.901L121.061 29.24H121.381L123.541 23H125.221L122.421 31H120.021L117.221 23ZM129.781 31.16C129.205 31.16 128.671 31.0587 128.181 30.856C127.69 30.6533 127.263 30.3707 126.901 30.008C126.549 29.6453 126.271 29.208 126.069 28.696C125.877 28.184 125.781 27.6187 125.781 27C125.781 26.3813 125.877 25.816 126.069 25.304C126.271 24.792 126.549 24.3547 126.901 23.992C127.263 23.6293 127.69 23.3467 128.181 23.144C128.671 22.9413 129.205 22.84 129.781 22.84C130.325 22.84 130.826 22.9413 131.285 23.144C131.754 23.336 132.159 23.608 132.501 23.96C132.853 24.312 133.125 24.728 133.317 25.208C133.519 25.688 133.621 26.2053 133.621 26.76C133.621 26.8773 133.615 26.984 133.605 27.08C133.594 27.176 133.583 27.2613 133.573 27.336C133.562 27.4213 133.551 27.496 133.541 27.56H127.381C127.466 28.2427 127.727 28.7867 128.165 29.192C128.602 29.5973 129.141 29.8 129.781 29.8C130.015 29.8 130.234 29.768 130.437 29.704C130.65 29.64 130.837 29.5547 130.997 29.448C131.167 29.3413 131.311 29.224 131.429 29.096C131.546 28.9573 131.637 28.8187 131.701 28.68H133.381C133.285 28.936 133.141 29.2133 132.949 29.512C132.757 29.8 132.511 30.0667 132.213 30.312C131.914 30.5573 131.562 30.76 131.157 30.92C130.762 31.08 130.303 31.16 129.781 31.16ZM132.101 26.36C132.015 25.72 131.765 25.2027 131.349 24.808C130.943 24.4027 130.421 24.2 129.781 24.2C129.098 24.2 128.554 24.4027 128.149 24.808C127.754 25.2027 127.498 25.72 127.381 26.36H132.101ZM135.386 19.8H136.986V31H135.386V19.8ZM142.749 31.16C142.173 31.16 141.64 31.0587 141.149 30.856C140.659 30.6533 140.232 30.3707 139.869 30.008C139.517 29.6453 139.24 29.208 139.037 28.696C138.845 28.184 138.749 27.6187 138.749 27C138.749 26.3813 138.845 25.816 139.037 25.304C139.24 24.792 139.517 24.3547 139.869 23.992C140.232 23.6293 140.659 23.3467 141.149 23.144C141.64 22.9413 142.173 22.84 142.749 22.84C143.325 22.84 143.859 22.9413 144.349 23.144C144.84 23.3467 145.261 23.6293 145.613 23.992C145.976 24.3547 146.253 24.792 146.445 25.304C146.648 25.816 146.749 26.3813 146.749 27C146.749 27.6187 146.648 28.184 146.445 28.696C146.253 29.208 145.976 29.6453 145.613 30.008C145.261 30.3707 144.84 30.6533 144.349 30.856C143.859 31.0587 143.325 31.16 142.749 31.16ZM142.749 29.72C143.091 29.72 143.405 29.656 143.693 29.528C143.992 29.4 144.248 29.2187 144.461 28.984C144.675 28.7493 144.84 28.4667 144.957 28.136C145.085 27.7947 145.149 27.416 145.149 27C145.149 26.584 145.085 26.2107 144.957 25.88C144.84 25.5387 144.675 25.2507 144.461 25.016C144.248 24.7813 143.992 24.6 143.693 24.472C143.405 24.344 143.091 24.28 142.749 24.28C142.408 24.28 142.088 24.344 141.789 24.472C141.501 24.6 141.251 24.7813 141.037 25.016C140.824 25.2507 140.653 25.5387 140.525 25.88C140.408 26.2107 140.349 26.584 140.349 27C140.349 27.416 140.408 27.7947 140.525 28.136C140.653 28.4667 140.824 28.7493 141.037 28.984C141.251 29.2187 141.501 29.4 141.789 29.528C142.088 29.656 142.408 29.72 142.749 29.72ZM148.431 23H149.871L150.031 23.96H150.111C150.175 23.8853 150.265 23.784 150.383 23.656C150.511 23.528 150.671 23.4053 150.863 23.288C151.065 23.16 151.305 23.0533 151.583 22.968C151.871 22.8827 152.207 22.84 152.591 22.84C153.113 22.84 153.599 22.936 154.047 23.128C154.495 23.32 154.884 23.5973 155.215 23.96C155.545 24.3227 155.801 24.76 155.983 25.272C156.175 25.784 156.271 26.36 156.271 27C156.271 27.64 156.175 28.216 155.983 28.728C155.801 29.24 155.545 29.6773 155.215 30.04C154.884 30.4027 154.495 30.68 154.047 30.872C153.599 31.064 153.113 31.16 152.591 31.16C152.207 31.16 151.871 31.1173 151.583 31.032C151.305 30.9467 151.065 30.8453 150.863 30.728C150.671 30.6 150.511 30.4773 150.383 30.36C150.265 30.232 150.175 30.1253 150.111 30.04H150.031V34.2H148.431V23ZM152.351 29.72C152.671 29.72 152.969 29.656 153.247 29.528C153.535 29.4 153.78 29.2187 153.983 28.984C154.196 28.7493 154.361 28.4667 154.479 28.136C154.607 27.7947 154.671 27.416 154.671 27C154.671 26.584 154.607 26.2107 154.479 25.88C154.361 25.5387 154.196 25.2507 153.983 25.016C153.78 24.7813 153.535 24.6 153.247 24.472C152.969 24.344 152.671 24.28 152.351 24.28C152.031 24.28 151.727 24.344 151.439 24.472C151.161 24.6 150.916 24.7813 150.703 25.016C150.5 25.2507 150.335 25.5387 150.207 25.88C150.089 26.2107 150.031 26.584 150.031 27C150.031 27.416 150.089 27.7947 150.207 28.136C150.335 28.4667 150.5 28.7493 150.703 28.984C150.916 29.2187 151.161 29.4 151.439 29.528C151.727 29.656 152.031 29.72 152.351 29.72ZM157.946 23H159.386L159.546 23.8H159.626C159.786 23.6187 159.973 23.4587 160.186 23.32C160.368 23.2027 160.586 23.096 160.842 23C161.098 22.8933 161.386 22.84 161.706 22.84C162.112 22.84 162.448 22.8987 162.714 23.016C162.992 23.1333 163.216 23.2613 163.386 23.4C163.578 23.5707 163.738 23.7573 163.866 23.96H163.946C164.106 23.7573 164.314 23.5707 164.57 23.4C164.784 23.2613 165.056 23.1333 165.386 23.016C165.717 22.8987 166.117 22.84 166.586 22.84C167.002 22.84 167.386 22.92 167.738 23.08C168.09 23.2293 168.394 23.4427 168.65 23.72C168.906 23.9867 169.104 24.312 169.242 24.696C169.392 25.0693 169.466 25.4853 169.466 25.944V31H167.866V25.96C167.866 25.4373 167.717 25.0267 167.418 24.728C167.13 24.4293 166.746 24.28 166.266 24.28C166.021 24.28 165.792 24.3227 165.578 24.408C165.365 24.4933 165.178 24.6107 165.018 24.76C164.858 24.9093 164.73 25.0907 164.634 25.304C164.549 25.5067 164.506 25.7253 164.506 25.96V31H162.906V25.96C162.906 25.4373 162.757 25.0267 162.458 24.728C162.17 24.4293 161.786 24.28 161.306 24.28C161.061 24.28 160.832 24.3227 160.618 24.408C160.405 24.4933 160.218 24.6107 160.058 24.76C159.898 24.9093 159.77 25.0907 159.674 25.304C159.589 25.5067 159.546 25.7253 159.546 25.96V31H157.946V23ZM175.062 31.16C174.486 31.16 173.953 31.0587 173.462 30.856C172.971 30.6533 172.545 30.3707 172.182 30.008C171.83 29.6453 171.553 29.208 171.35 28.696C171.158 28.184 171.062 27.6187 171.062 27C171.062 26.3813 171.158 25.816 171.35 25.304C171.553 24.792 171.83 24.3547 172.182 23.992C172.545 23.6293 172.971 23.3467 173.462 23.144C173.953 22.9413 174.486 22.84 175.062 22.84C175.606 22.84 176.107 22.9413 176.566 23.144C177.035 23.336 177.441 23.608 177.782 23.96C178.134 24.312 178.406 24.728 178.598 25.208C178.801 25.688 178.902 26.2053 178.902 26.76C178.902 26.8773 178.897 26.984 178.886 27.08C178.875 27.176 178.865 27.2613 178.854 27.336C178.843 27.4213 178.833 27.496 178.822 27.56H172.662C172.747 28.2427 173.009 28.7867 173.446 29.192C173.883 29.5973 174.422 29.8 175.062 29.8C175.297 29.8 175.515 29.768 175.718 29.704C175.931 29.64 176.118 29.5547 176.278 29.448C176.449 29.3413 176.593 29.224 176.71 29.096C176.827 28.9573 176.918 28.8187 176.982 28.68H178.662C178.566 28.936 178.422 29.2133 178.23 29.512C178.038 29.8 177.793 30.0667 177.494 30.312C177.195 30.5573 176.843 30.76 176.438 30.92C176.043 31.08 175.585 31.16 175.062 31.16ZM177.382 26.36C177.297 25.72 177.046 25.2027 176.63 24.808C176.225 24.4027 175.702 24.2 175.062 24.2C174.379 24.2 173.835 24.4027 173.43 24.808C173.035 25.2027 172.779 25.72 172.662 26.36H177.382ZM180.587 23H182.027L182.187 23.8H182.267C182.438 23.6187 182.635 23.4587 182.859 23.32C183.051 23.2027 183.291 23.096 183.579 23C183.867 22.8933 184.203 22.84 184.587 22.84C185.067 22.84 185.504 22.92 185.899 23.08C186.294 23.2293 186.63 23.448 186.907 23.736C187.184 24.024 187.398 24.376 187.547 24.792C187.707 25.208 187.787 25.6773 187.787 26.2V31H186.187V26.2C186.187 25.944 186.139 25.6987 186.043 25.464C185.947 25.2293 185.814 25.0267 185.643 24.856C185.472 24.6747 185.27 24.536 185.035 24.44C184.8 24.3333 184.544 24.28 184.267 24.28C183.968 24.28 183.691 24.3333 183.435 24.44C183.179 24.536 182.96 24.6747 182.779 24.856C182.598 25.0267 182.454 25.2293 182.347 25.464C182.24 25.6987 182.187 25.944 182.187 26.2V31H180.587V23ZM191.878 31C191.312 31 190.875 30.8507 190.566 30.552C190.267 30.2533 190.118 29.8427 190.118 29.32V24.52H188.838V23H190.118V20.76H191.718V23H193.558V24.52H191.718V29.08C191.718 29.4 191.878 29.56 192.198 29.56H193.558V31H191.878Z" fill="white"/>
</svg>
