<svg width="14" height="14" viewBox="0 0 14 14" fill="none" xmlns="http://www.w3.org/2000/svg">
<g id="Group">
<path id="Vector" d="M10.6809 2.69385C10.2409 2.69385 9.88184 3.05658 9.88184 3.50122C9.88184 3.94585 10.2409 4.30858 10.6809 4.30858C11.121 4.30858 11.4801 3.94585 11.4801 3.50122C11.4801 3.05658 11.121 2.69385 10.6809 2.69385Z" fill="white"/>
<path id="Vector_2" d="M7.15134 3.72412C5.30991 3.72412 3.81592 5.23355 3.81592 7.094C3.81592 8.95446 5.30991 10.4639 7.15134 10.4639C8.99277 10.4639 10.4868 8.95446 10.4868 7.094C10.4868 5.23355 8.99277 3.72412 7.15134 3.72412ZM7.15134 9.25868C5.97004 9.25868 5.0088 8.2875 5.0088 7.094C5.0088 5.9005 5.97004 4.92932 7.15134 4.92932C8.33263 4.92932 9.29388 5.9005 9.29388 7.094C9.29388 8.2875 8.33263 9.25868 7.15134 9.25868Z" fill="white"/>
<path id="Vector_3" d="M9.78992 13.9392H4.38145C2.13467 13.9392 0.316406 12.0904 0.316406 9.83213V4.35607C0.316406 2.08608 2.14626 0.249023 4.38145 0.249023H9.78992C12.0367 0.249023 13.855 2.09778 13.855 4.35607V9.82043C13.855 12.0904 12.0251 13.9275 9.78992 13.9275V13.9392ZM4.38145 1.53613C2.84113 1.53613 1.59035 2.79984 1.59035 4.35607V9.82043C1.59035 11.3767 2.84113 12.6404 4.38145 12.6404H9.78992C11.3302 12.6404 12.581 11.3767 12.581 9.82043V4.35607C12.581 2.79984 11.3302 1.53613 9.78992 1.53613H4.38145Z" fill="white"/>
</g>
</svg>
