<svg width="14" height="14" viewBox="0 0 14 14" fill="none" xmlns="http://www.w3.org/2000/svg">
<g id="Group">
<path id="Vector" d="M0.669123 4.7539H3.46022V13.8105H0.669123V4.7539ZM2.05889 0.249023C2.95065 0.249023 3.66869 0.986185 3.66869 1.87546C3.66869 2.76473 2.95065 3.5136 2.05889 3.5136C1.16712 3.5136 0.4375 2.77644 0.4375 1.87546C0.4375 0.974484 1.15554 0.249023 2.05889 0.249023Z" fill="white"/>
<path id="Vector_2" d="M5.20508 4.75345H7.88036V5.99375H7.9151C8.2857 5.27999 9.20062 4.53113 10.5556 4.53113C13.3815 4.53113 13.8911 6.40329 13.8911 8.84879V13.81H11.1115V9.41044C11.1115 8.35735 11.0884 7.01174 9.66388 7.01174C8.23938 7.01174 7.99617 8.15843 7.99617 9.34023V13.8217H5.21665V4.75345H5.20508Z" fill="white"/>
</g>
</svg>
