<svg width="966" height="116" viewBox="0 0 966 116" fill="none" xmlns="http://www.w3.org/2000/svg">
<path d="M0.7 113L38.05 3.5H72.85L111.25 113H89.35L56.8 18.05L64.45 21.35H45.7L53.5 18.05L22 113H0.7ZM26.8 83.9L33.55 65.9H77.95L84.55 83.9H26.8ZM167.716 115.7C161.016 115.7 155.116 114.3 150.016 111.5C144.916 108.6 140.916 104.4 138.016 98.9C135.116 93.4 133.516 86.75 133.216 78.95H136.366V113H119.866V3.5H140.716V58.25L135.166 66.8C135.566 58.4 137.216 51.4 140.116 45.8C143.116 40.2 147.116 36 152.116 33.2C157.116 30.4 162.766 29 169.066 29C174.666 29 179.766 30.05 184.366 32.15C188.966 34.25 192.916 37.2 196.216 41C199.516 44.7 202.016 49.05 203.716 54.05C205.516 59.05 206.416 64.5 206.416 70.4V73.55C206.416 79.45 205.516 84.95 203.716 90.05C201.916 95.15 199.316 99.65 195.916 103.55C192.516 107.35 188.416 110.35 183.616 112.55C178.916 114.65 173.616 115.7 167.716 115.7ZM163.066 98.15C167.566 98.15 171.466 97.05 174.766 94.85C178.166 92.55 180.816 89.45 182.716 85.55C184.616 81.65 185.566 77.15 185.566 72.05C185.566 66.85 184.616 62.35 182.716 58.55C180.816 54.75 178.166 51.8 174.766 49.7C171.466 47.6 167.566 46.55 163.066 46.55C158.966 46.55 155.166 47.45 151.666 49.25C148.266 51.05 145.466 53.7 143.266 57.2C141.166 60.7 140.116 64.9 140.116 69.8V75.8C140.116 80.5 141.216 84.5 143.416 87.8C145.616 91.1 148.466 93.65 151.966 95.45C155.466 97.25 159.166 98.15 163.066 98.15ZM257.898 115.85C250.698 115.85 244.348 114.7 238.848 112.4C233.348 110.1 228.698 107 224.898 103.1C221.098 99.1 218.198 94.6 216.198 89.6C214.298 84.6 213.348 79.4 213.348 74V70.85C213.348 65.25 214.348 59.95 216.348 54.95C218.448 49.85 221.398 45.35 225.198 41.45C229.098 37.45 233.798 34.35 239.298 32.15C244.798 29.85 250.998 28.7 257.898 28.7C264.798 28.7 270.998 29.85 276.498 32.15C281.998 34.35 286.648 37.45 290.448 41.45C294.348 45.35 297.298 49.85 299.298 54.95C301.298 59.95 302.298 65.25 302.298 70.85V74C302.298 79.4 301.298 84.6 299.298 89.6C297.398 94.6 294.548 99.1 290.748 103.1C286.948 107 282.298 110.1 276.798 112.4C271.298 114.7 264.998 115.85 257.898 115.85ZM257.898 98C262.998 98 267.298 96.9 270.798 94.7C274.298 92.4 276.948 89.35 278.748 85.55C280.548 81.65 281.448 77.25 281.448 72.35C281.448 67.35 280.498 62.95 278.598 59.15C276.798 55.25 274.098 52.2 270.498 50C266.998 47.7 262.798 46.55 257.898 46.55C252.998 46.55 248.748 47.7 245.148 50C241.648 52.2 238.948 55.25 237.048 59.15C235.148 62.95 234.198 67.35 234.198 72.35C234.198 77.25 235.098 81.65 236.898 85.55C238.798 89.35 241.498 92.4 244.998 94.7C248.498 96.9 252.798 98 257.898 98ZM342.305 115.55C332.905 115.55 325.605 112.45 320.405 106.25C315.305 100.05 312.755 90.85 312.755 78.65V31.4H333.605V80.45C333.605 85.45 335.005 89.45 337.805 92.45C340.605 95.35 344.405 96.8 349.205 96.8C354.005 96.8 357.905 95.25 360.905 92.15C364.005 89.05 365.555 84.85 365.555 79.55V31.4H386.405V113H369.905V78.35H371.555C371.555 86.55 370.505 93.4 368.405 98.9C366.305 104.4 363.155 108.55 358.955 111.35C354.755 114.15 349.505 115.55 343.205 115.55H342.305ZM439.756 114.05C432.256 114.05 426.056 113.1 421.156 111.2C416.356 109.2 412.756 105.9 410.356 101.3C407.956 96.6 406.756 90.3 406.756 82.4L406.906 8.59999H426.406L426.256 83.75C426.256 87.75 427.306 90.85 429.406 93.05C431.606 95.15 434.706 96.2 438.706 96.2H451.456V114.05H439.756ZM393.856 46.85V31.55H451.456V46.85H393.856ZM540.329 115.85C530.429 115.85 521.929 114.1 514.829 110.6C507.729 107.1 501.929 102.55 497.429 96.95C493.029 91.35 489.779 85.25 487.679 78.65C485.579 72.05 484.529 65.7 484.529 59.6V56.3C484.529 49.5 485.579 42.8 487.679 36.2C489.879 29.6 493.229 23.6 497.729 18.2C502.229 12.8 507.929 8.49999 514.829 5.29999C521.829 1.99999 530.079 0.349993 539.579 0.349993C549.479 0.349993 558.079 2.14999 565.379 5.74999C572.779 9.25 578.679 14.25 583.079 20.75C587.479 27.15 590.129 34.65 591.029 43.25H569.579C568.779 38.25 566.979 34.05 564.179 30.65C561.479 27.15 558.029 24.55 553.829 22.85C549.629 21.05 544.879 20.15 539.579 20.15C534.179 20.15 529.379 21.1 525.179 23C520.979 24.8 517.479 27.4 514.679 30.8C511.879 34.2 509.729 38.2 508.229 42.8C506.829 47.4 506.129 52.5 506.129 58.1C506.129 63.5 506.829 68.5 508.229 73.1C509.729 77.7 511.929 81.75 514.829 85.25C517.729 88.65 521.279 91.3 525.479 93.2C529.779 95.1 534.729 96.05 540.329 96.05C548.529 96.05 555.429 94.05 561.029 90.05C566.729 85.95 570.179 80.25 571.379 72.95H592.829C591.829 80.75 589.179 87.9 584.879 94.4C580.579 100.9 574.679 106.1 567.179 110C559.679 113.9 550.729 115.85 540.329 115.85ZM603.153 113V3.5H624.003V67.4H620.403C620.403 59.2 621.453 52.25 623.553 46.55C625.653 40.85 628.753 36.5 632.853 33.5C637.053 30.5 642.353 29 648.753 29H649.653C658.953 29 666.003 32.2 670.803 38.6C675.603 45 678.003 54.3 678.003 66.5V113H657.153V64.55C657.153 59.35 655.653 55.25 652.653 52.25C649.753 49.25 645.903 47.75 641.103 47.75C636.003 47.75 631.853 49.45 628.653 52.85C625.553 56.15 624.003 60.5 624.003 65.9V113H603.153ZM730.868 115.85C723.868 115.85 717.718 114.65 712.418 112.25C707.218 109.85 702.868 106.65 699.368 102.65C695.968 98.55 693.368 94 691.568 89C689.868 84 689.018 78.9 689.018 73.7V70.85C689.018 65.45 689.868 60.25 691.568 55.25C693.368 50.15 695.968 45.65 699.368 41.75C702.868 37.75 707.168 34.6 712.268 32.3C717.368 29.9 723.268 28.7 729.968 28.7C738.768 28.7 746.118 30.65 752.018 34.55C758.018 38.35 762.518 43.4 765.518 49.7C768.518 55.9 770.018 62.6 770.018 69.8V77.3H697.868V64.55H756.968L750.518 70.85C750.518 65.65 749.768 61.2 748.268 57.5C746.768 53.8 744.468 50.95 741.368 48.95C738.368 46.95 734.568 45.95 729.968 45.95C725.368 45.95 721.468 47 718.268 49.1C715.068 51.2 712.618 54.25 710.918 58.25C709.318 62.15 708.518 66.85 708.518 72.35C708.518 77.45 709.318 82 710.918 86C712.518 89.9 714.968 93 718.268 95.3C721.568 97.5 725.768 98.6 730.868 98.6C735.968 98.6 740.118 97.6 743.318 95.6C746.518 93.5 748.568 90.95 749.468 87.95H768.668C767.468 93.55 765.168 98.45 761.768 102.65C758.368 106.85 754.018 110.1 748.718 112.4C743.518 114.7 737.568 115.85 730.868 115.85ZM797.054 113L771.554 31.55H793.004L817.454 113H797.054ZM803.204 113V95.9H825.254V113H803.204ZM811.454 113L832.454 31.55H852.554L830.504 113H811.454ZM910.626 113V88.85H907.176V62C907.176 57.3 906.026 53.8 903.726 51.5C901.426 49.2 897.876 48.05 893.076 48.05C890.576 48.05 887.576 48.1 884.076 48.2C880.576 48.3 877.026 48.45 873.426 48.65C869.926 48.75 866.776 48.9 863.976 49.1V31.4C866.276 31.2 868.876 31 871.776 30.8C874.676 30.6 877.626 30.5 880.626 30.5C883.726 30.4 886.626 30.35 889.326 30.35C897.726 30.35 904.676 31.45 910.176 33.65C915.776 35.85 919.976 39.3 922.776 44C925.676 48.7 927.126 54.85 927.126 62.45V113H910.626ZM884.376 115.1C878.476 115.1 873.276 114.05 868.776 111.95C864.376 109.85 860.926 106.85 858.426 102.95C856.026 99.05 854.826 94.35 854.826 88.85C854.826 82.85 856.276 77.95 859.176 74.15C862.176 70.35 866.326 67.5 871.626 65.6C877.026 63.7 883.326 62.75 890.526 62.75H909.426V75.2H890.226C885.426 75.2 881.726 76.4 879.126 78.8C876.626 81.1 875.376 84.1 875.376 87.8C875.376 91.5 876.626 94.5 879.126 96.8C881.726 99.1 885.426 100.25 890.226 100.25C893.126 100.25 895.776 99.75 898.176 98.75C900.676 97.65 902.726 95.85 904.326 93.35C906.026 90.75 906.976 87.25 907.176 82.85L912.276 88.7C911.776 94.4 910.376 99.2 908.076 103.1C905.876 107 902.776 110 898.776 112.1C894.876 114.1 890.076 115.1 884.376 115.1ZM944.509 113V3.5H965.359V113H944.509ZM934.309 19.1V3.5H965.359V19.1H934.309Z" fill="#DBDBDB"/>
</svg>
