<svg width="273" height="153" viewBox="0 0 273 153" fill="none" xmlns="http://www.w3.org/2000/svg">
<path d="M9.45012 63L30.6151 0.949998H50.3351L72.0951 63H59.6851L41.2401 9.195L45.5751 11.065H34.9501L39.3701 9.195L21.5201 63H9.45012ZM24.2401 46.51L28.0651 36.31H53.2251L56.9651 46.51H24.2401ZM104.092 64.53C100.296 64.53 96.9523 63.7367 94.0623 62.15C91.1723 60.5067 88.9056 58.1267 87.2623 55.01C85.619 51.8933 84.7123 48.125 84.5423 43.705H86.3273V63H76.9773V0.949998H88.7923V31.975L85.6473 36.82C85.874 32.06 86.809 28.0933 88.4523 24.92C90.1523 21.7467 92.419 19.3667 95.2523 17.78C98.0856 16.1933 101.287 15.4 104.857 15.4C108.031 15.4 110.921 15.995 113.527 17.185C116.134 18.375 118.372 20.0467 120.242 22.2C122.112 24.2967 123.529 26.7617 124.492 29.595C125.512 32.4283 126.022 35.5167 126.022 38.86V40.645C126.022 43.9883 125.512 47.105 124.492 49.995C123.472 52.885 121.999 55.435 120.072 57.645C118.146 59.7983 115.822 61.4983 113.102 62.745C110.439 63.935 107.436 64.53 104.092 64.53ZM101.457 54.585C104.007 54.585 106.217 53.9617 108.087 52.715C110.014 51.4117 111.516 49.655 112.592 47.445C113.669 45.235 114.207 42.685 114.207 39.795C114.207 36.8483 113.669 34.2983 112.592 32.145C111.516 29.9917 110.014 28.32 108.087 27.13C106.217 25.94 104.007 25.345 101.457 25.345C99.134 25.345 96.9806 25.855 94.9973 26.875C93.0706 27.895 91.484 29.3967 90.2373 31.38C89.0473 33.3633 88.4523 35.7433 88.4523 38.52V41.92C88.4523 44.5833 89.0756 46.85 90.3223 48.72C91.569 50.59 93.184 52.035 95.1673 53.055C97.1506 54.075 99.2473 54.585 101.457 54.585ZM155.196 64.615C151.116 64.615 147.518 63.9633 144.401 62.66C141.284 61.3567 138.649 59.6 136.496 57.39C134.343 55.1233 132.699 52.5733 131.566 49.74C130.489 46.9067 129.951 43.96 129.951 40.9V39.115C129.951 35.9417 130.518 32.9383 131.651 30.105C132.841 27.215 134.513 24.665 136.666 22.455C138.876 20.1883 141.539 18.4317 144.656 17.185C147.773 15.8817 151.286 15.23 155.196 15.23C159.106 15.23 162.619 15.8817 165.736 17.185C168.853 18.4317 171.488 20.1883 173.641 22.455C175.851 24.665 177.523 27.215 178.656 30.105C179.789 32.9383 180.356 35.9417 180.356 39.115V40.9C180.356 43.96 179.789 46.9067 178.656 49.74C177.579 52.5733 175.964 55.1233 173.811 57.39C171.658 59.6 169.023 61.3567 165.906 62.66C162.789 63.9633 159.219 64.615 155.196 64.615ZM155.196 54.5C158.086 54.5 160.523 53.8767 162.506 52.63C164.489 51.3267 165.991 49.5983 167.011 47.445C168.031 45.235 168.541 42.7417 168.541 39.965C168.541 37.1317 168.003 34.6383 166.926 32.485C165.906 30.275 164.376 28.5467 162.336 27.3C160.353 25.9967 157.973 25.345 155.196 25.345C152.419 25.345 150.011 25.9967 147.971 27.3C145.988 28.5467 144.458 30.275 143.381 32.485C142.304 34.6383 141.766 37.1317 141.766 39.965C141.766 42.7417 142.276 45.235 143.296 47.445C144.373 49.5983 145.903 51.3267 147.886 52.63C149.869 53.8767 152.306 54.5 155.196 54.5ZM203.026 64.445C197.7 64.445 193.563 62.6883 190.616 59.175C187.726 55.6617 186.281 50.4483 186.281 43.535V16.76H198.096V44.555C198.096 47.3883 198.89 49.655 200.476 51.355C202.063 52.9983 204.216 53.82 206.936 53.82C209.656 53.82 211.866 52.9417 213.566 51.185C215.323 49.4283 216.201 47.0483 216.201 44.045V16.76H228.016V63H218.666V43.365H219.601C219.601 48.0117 219.006 51.8933 217.816 55.01C216.626 58.1267 214.841 60.4783 212.461 62.065C210.081 63.6517 207.106 64.445 203.536 64.445H203.026ZM258.248 63.595C253.998 63.595 250.485 63.0567 247.708 61.98C244.988 60.8467 242.948 58.9767 241.588 56.37C240.228 53.7067 239.548 50.1367 239.548 45.66L239.633 3.84H250.683L250.598 46.425C250.598 48.6917 251.193 50.4483 252.383 51.695C253.63 52.885 255.387 53.48 257.653 53.48H264.878V63.595H258.248ZM232.238 25.515V16.845H264.878V25.515H232.238ZM31.9954 152.615C26.3854 152.615 21.5687 151.623 17.5454 149.64C13.522 147.657 10.2354 145.078 7.68537 141.905C5.19204 138.732 3.35037 135.275 2.16037 131.535C0.970371 127.795 0.375371 124.197 0.375371 120.74V118.87C0.375371 115.017 0.970371 111.22 2.16037 107.48C3.40704 103.74 5.30537 100.34 7.85537 97.28C10.4054 94.22 13.6354 91.7833 17.5454 89.97C21.512 88.1 26.187 87.165 31.5704 87.165C37.1804 87.165 42.0537 88.185 46.1904 90.225C50.3837 92.2083 53.727 95.0417 56.2204 98.725C58.7137 102.352 60.2154 106.602 60.7254 111.475H48.5704C48.117 108.642 47.097 106.262 45.5104 104.335C43.9804 102.352 42.0254 100.878 39.6454 99.915C37.2654 98.895 34.5737 98.385 31.5704 98.385C28.5104 98.385 25.7904 98.9233 23.4104 100C21.0304 101.02 19.047 102.493 17.4604 104.42C15.8737 106.347 14.6554 108.613 13.8054 111.22C13.012 113.827 12.6154 116.717 12.6154 119.89C12.6154 122.95 13.012 125.783 13.8054 128.39C14.6554 130.997 15.902 133.292 17.5454 135.275C19.1887 137.202 21.2004 138.703 23.5804 139.78C26.017 140.857 28.822 141.395 31.9954 141.395C36.642 141.395 40.552 140.262 43.7254 137.995C46.9554 135.672 48.9104 132.442 49.5904 128.305H61.7454C61.1787 132.725 59.677 136.777 57.2404 140.46C54.8037 144.143 51.4604 147.09 47.2104 149.3C42.9604 151.51 37.8887 152.615 31.9954 152.615ZM67.5958 151V88.95H79.4108V125.16H77.3708C77.3708 120.513 77.9658 116.575 79.1558 113.345C80.3458 110.115 82.1024 107.65 84.4258 105.95C86.8058 104.25 89.8091 103.4 93.4358 103.4H93.9458C99.2158 103.4 103.211 105.213 105.931 108.84C108.651 112.467 110.011 117.737 110.011 124.65V151H98.1958V123.545C98.1958 120.598 97.3458 118.275 95.6458 116.575C94.0024 114.875 91.8208 114.025 89.1008 114.025C86.2108 114.025 83.8591 114.988 82.0458 116.915C80.2891 118.785 79.4108 121.25 79.4108 124.31V151H67.5958ZM139.968 152.615C136.001 152.615 132.516 151.935 129.513 150.575C126.566 149.215 124.101 147.402 122.118 145.135C120.191 142.812 118.718 140.233 117.698 137.4C116.735 134.567 116.253 131.677 116.253 128.73V127.115C116.253 124.055 116.735 121.108 117.698 118.275C118.718 115.385 120.191 112.835 122.118 110.625C124.101 108.358 126.538 106.573 129.428 105.27C132.318 103.91 135.661 103.23 139.458 103.23C144.445 103.23 148.61 104.335 151.953 106.545C155.353 108.698 157.903 111.56 159.603 115.13C161.303 118.643 162.153 122.44 162.153 126.52V130.77H121.268V123.545H154.758L151.103 127.115C151.103 124.168 150.678 121.647 149.828 119.55C148.978 117.453 147.675 115.838 145.918 114.705C144.218 113.572 142.065 113.005 139.458 113.005C136.851 113.005 134.641 113.6 132.828 114.79C131.015 115.98 129.626 117.708 128.663 119.975C127.756 122.185 127.303 124.848 127.303 127.965C127.303 130.855 127.756 133.433 128.663 135.7C129.57 137.91 130.958 139.667 132.828 140.97C134.698 142.217 137.078 142.84 139.968 142.84C142.858 142.84 145.21 142.273 147.023 141.14C148.836 139.95 149.998 138.505 150.508 136.805H161.388C160.708 139.978 159.405 142.755 157.478 145.135C155.551 147.515 153.086 149.357 150.083 150.66C147.136 151.963 143.765 152.615 139.968 152.615ZM177.473 151L163.023 104.845H175.178L189.033 151H177.473ZM180.958 151V141.31H193.453V151H180.958ZM185.633 151L197.533 104.845H208.923L196.428 151H185.633ZM241.83 151V137.315H239.875V122.1C239.875 119.437 239.224 117.453 237.92 116.15C236.617 114.847 234.605 114.195 231.885 114.195C230.469 114.195 228.769 114.223 226.785 114.28C224.802 114.337 222.79 114.422 220.75 114.535C218.767 114.592 216.982 114.677 215.395 114.79V104.76C216.699 104.647 218.172 104.533 219.815 104.42C221.459 104.307 223.13 104.25 224.83 104.25C226.587 104.193 228.23 104.165 229.76 104.165C234.52 104.165 238.459 104.788 241.575 106.035C244.749 107.282 247.129 109.237 248.715 111.9C250.359 114.563 251.18 118.048 251.18 122.355V151H241.83ZM226.955 152.19C223.612 152.19 220.665 151.595 218.115 150.405C215.622 149.215 213.667 147.515 212.25 145.305C210.89 143.095 210.21 140.432 210.21 137.315C210.21 133.915 211.032 131.138 212.675 128.985C214.375 126.832 216.727 125.217 219.73 124.14C222.79 123.063 226.36 122.525 230.44 122.525H241.15V129.58H230.27C227.55 129.58 225.454 130.26 223.98 131.62C222.564 132.923 221.855 134.623 221.855 136.72C221.855 138.817 222.564 140.517 223.98 141.82C225.454 143.123 227.55 143.775 230.27 143.775C231.914 143.775 233.415 143.492 234.775 142.925C236.192 142.302 237.354 141.282 238.26 139.865C239.224 138.392 239.762 136.408 239.875 133.915L242.765 137.23C242.482 140.46 241.689 143.18 240.385 145.39C239.139 147.6 237.382 149.3 235.115 150.49C232.905 151.623 230.185 152.19 226.955 152.19ZM261.031 151V88.95H272.846V151H261.031ZM255.251 97.79V88.95H272.846V97.79H255.251Z" fill="#DBDBDB"/>
</svg>
