<svg width="878" height="158" viewBox="0 0 878 158" fill="none" xmlns="http://www.w3.org/2000/svg">
<path d="M828.711 157.4C813.111 157.4 800.911 154.2 792.111 147.8C783.311 141.4 778.645 132.4 778.111 120.8H806.511C807.045 124.267 809.111 127.4 812.711 130.2C816.445 132.867 821.978 134.2 829.311 134.2C834.911 134.2 839.511 133.267 843.111 131.4C846.845 129.4 848.711 126.6 848.711 123C848.711 119.8 847.311 117.267 844.511 115.4C841.711 113.4 836.711 112 829.511 111.2L820.911 110.4C807.711 109.067 797.778 105.4 791.111 99.4002C784.578 93.4002 781.311 85.7335 781.311 76.4002C781.311 68.6669 783.245 62.2002 787.111 57.0002C790.978 51.8002 796.311 47.8669 803.111 45.2002C810.045 42.5335 817.911 41.2002 826.711 41.2002C840.845 41.2002 852.245 44.3335 860.911 50.6002C869.578 56.7335 874.111 65.6669 874.511 77.4002H846.111C845.578 73.8002 843.711 70.8002 840.511 68.4002C837.311 65.8669 832.578 64.6002 826.311 64.6002C821.378 64.6002 817.445 65.5335 814.511 67.4002C811.578 69.2669 810.111 71.8002 810.111 75.0002C810.111 78.0669 811.378 80.4002 813.911 82.0002C816.445 83.6002 820.578 84.7335 826.311 85.4002L834.911 86.2002C848.378 87.6669 858.845 91.4002 866.311 97.4002C873.778 103.4 877.511 111.467 877.511 121.6C877.511 128.934 875.511 135.334 871.511 140.8C867.511 146.134 861.845 150.267 854.511 153.2C847.178 156 838.578 157.4 828.711 157.4Z" fill="#DBDBDB"/>
<path d="M712.506 157.8C703.173 157.8 694.906 156.2 687.706 153C680.639 149.8 674.706 145.533 669.906 140.2C665.239 134.733 661.639 128.667 659.106 122C656.706 115.2 655.506 108.267 655.506 101.2V97.2001C655.506 89.8668 656.706 82.8668 659.106 76.2001C661.639 69.4001 665.239 63.3334 669.906 58.0001C674.573 52.6668 680.373 48.4668 687.306 45.4001C694.373 42.2001 702.373 40.6001 711.306 40.6001C723.039 40.6001 732.906 43.2668 740.906 48.6001C749.039 53.8001 755.239 60.6668 759.506 69.2001C763.773 77.6001 765.906 86.8001 765.906 96.8001V107.6H668.906V89.4001H746.506L736.106 97.8001C736.106 91.2668 735.173 85.6668 733.306 81.0001C731.439 76.3334 728.639 72.8001 724.906 70.4001C721.306 67.8668 716.773 66.6001 711.306 66.6001C705.706 66.6001 700.973 67.8668 697.106 70.4001C693.239 72.9334 690.306 76.6668 688.306 81.6001C686.306 86.4001 685.306 92.3334 685.306 99.4001C685.306 105.933 686.239 111.667 688.106 116.6C689.973 121.4 692.906 125.133 696.906 127.8C700.906 130.467 706.106 131.8 712.506 131.8C718.373 131.8 723.173 130.667 726.906 128.4C730.639 126.133 733.173 123.333 734.506 120H763.906C762.306 127.333 759.173 133.867 754.506 139.6C749.839 145.333 743.973 149.8 736.906 153C729.839 156.2 721.706 157.8 712.506 157.8Z" fill="#DBDBDB"/>
<path d="M589.24 157.8C579.774 157.8 571.507 156.267 564.44 153.2C557.507 150 551.707 145.733 547.04 140.4C542.374 135.067 538.907 129.067 536.64 122.4C534.374 115.6 533.24 108.6 533.24 101.4V97.6001C533.24 90.1334 534.44 83.0001 536.84 76.2001C539.24 69.2668 542.774 63.1334 547.44 57.8001C552.107 52.4668 557.907 48.2668 564.84 45.2001C571.907 42.1334 579.974 40.6001 589.04 40.6001C598.907 40.6001 607.64 42.5334 615.24 46.4001C622.84 50.1334 628.907 55.4001 633.44 62.2001C637.974 69.0001 640.507 76.8001 641.04 85.6001H609.64C609.107 80.6668 607.107 76.5334 603.64 73.2001C600.307 69.7334 595.44 68.0001 589.04 68.0001C583.707 68.0001 579.24 69.3334 575.64 72.0001C572.174 74.6668 569.574 78.3334 567.84 83.0001C566.107 87.6668 565.24 93.2001 565.24 99.6001C565.24 105.467 566.04 110.8 567.64 115.6C569.24 120.267 571.774 123.933 575.24 126.6C578.84 129.133 583.507 130.4 589.24 130.4C593.507 130.4 597.107 129.667 600.04 128.2C603.107 126.6 605.507 124.467 607.24 121.8C609.107 119 610.24 115.8 610.64 112.2H641.84C641.44 121.267 638.907 129.267 634.24 136.2C629.574 143 623.374 148.333 615.64 152.2C607.907 155.933 599.107 157.8 589.24 157.8Z" fill="#DBDBDB"/>
<path d="M478.444 154V44.4002H510.444V154H478.444ZM463.844 68.0002V44.4002H510.444V68.0002H463.844ZM490.844 33.6002C484.844 33.6002 480.377 32.0669 477.444 29.0002C474.644 25.8002 473.244 21.8002 473.244 17.0002C473.244 12.0669 474.644 8.06686 477.444 5.00019C480.377 1.8002 484.844 0.200195 490.844 0.200195C496.844 0.200195 501.244 1.8002 504.044 5.00019C506.977 8.06686 508.444 12.0669 508.444 17.0002C508.444 21.8002 506.977 25.8002 504.044 29.0002C501.244 32.0669 496.844 33.6002 490.844 33.6002Z" fill="#DBDBDB"/>
<path d="M375.108 154L342.308 44.4004H375.308L406.108 154H375.108ZM385.108 154V127.4H417.308V154H385.108ZM396.908 154L423.508 44.4004H454.308L425.908 154H396.908Z" fill="#DBDBDB"/>
<path d="M266.604 154V44.4H292.004V91.4H291.404C291.404 75.9333 294.67 64 301.204 55.6C307.87 47.2 317.47 43 330.004 43H334.204V70.6H326.204C317.404 70.6 310.604 73 305.804 77.8C301.004 82.4667 298.604 89.2667 298.604 98.2V154H266.604Z" fill="#DBDBDB"/>
<path d="M191.998 157.8C182.665 157.8 174.398 156.2 167.198 153C160.131 149.8 154.198 145.533 149.398 140.2C144.731 134.733 141.131 128.667 138.598 122C136.198 115.2 134.998 108.267 134.998 101.2V97.2001C134.998 89.8668 136.198 82.8668 138.598 76.2001C141.131 69.4001 144.731 63.3334 149.398 58.0001C154.065 52.6668 159.865 48.4668 166.798 45.4001C173.865 42.2001 181.865 40.6001 190.798 40.6001C202.531 40.6001 212.398 43.2668 220.398 48.6001C228.531 53.8001 234.731 60.6668 238.998 69.2001C243.265 77.6001 245.398 86.8001 245.398 96.8001V107.6H148.398V89.4001H225.998L215.598 97.8001C215.598 91.2668 214.665 85.6668 212.798 81.0001C210.931 76.3334 208.131 72.8001 204.398 70.4001C200.798 67.8668 196.265 66.6001 190.798 66.6001C185.198 66.6001 180.465 67.8668 176.598 70.4001C172.731 72.9334 169.798 76.6668 167.798 81.6001C165.798 86.4001 164.798 92.3334 164.798 99.4001C164.798 105.933 165.731 111.667 167.598 116.6C169.465 121.4 172.398 125.133 176.398 127.8C180.398 130.467 185.598 131.8 191.998 131.8C197.865 131.8 202.665 130.667 206.398 128.4C210.131 126.133 212.665 123.333 213.998 120H243.398C241.798 127.333 238.665 133.867 233.998 139.6C229.331 145.333 223.465 149.8 216.398 153C209.331 156.2 201.198 157.8 191.998 157.8Z" fill="#DBDBDB"/>
<path d="M61 157.8C47.8 157.8 36.6667 155.733 27.6 151.6C18.5333 147.333 11.6667 141.6 7 134.4C2.33333 127.067 0 118.667 0 109.2H31.8C31.8 112.933 32.8 116.4 34.8 119.6C36.9333 122.8 40.1333 125.4 44.4 127.4C48.6667 129.267 54.2 130.2 61 130.2C67.1333 130.2 72.2667 129.4 76.4 127.8C80.5333 126.2 83.6667 124 85.8 121.2C87.9333 118.267 89 114.933 89 111.2C89 106.533 87 102.867 83 100.2C79 97.4001 72.5333 95.6001 63.6 94.8001L52.6 93.8001C38.0667 92.6001 26.4667 88.0668 17.8 80.2001C9.13333 72.3334 4.8 61.9334 4.8 49.0001C4.8 39.6668 7 31.6001 11.4 24.8001C15.9333 18.0001 22.2 12.8001 30.2 9.2001C38.2 5.46676 47.6667 3.6001 58.6 3.6001C70.0667 3.6001 79.8667 5.60009 88 9.60009C96.2667 13.4668 102.6 19.0001 107 26.2001C111.4 33.2668 113.6 41.6001 113.6 51.2001H81.6C81.6 47.6001 80.7333 44.3334 79 41.4001C77.2667 38.3334 74.6667 35.8668 71.2 34.0001C67.8667 32.1334 63.6667 31.2001 58.6 31.2001C53.8 31.2001 49.7333 32.0001 46.4 33.6001C43.2 35.2001 40.8 37.4001 39.2 40.2001C37.6 42.8668 36.8 45.8001 36.8 49.0001C36.8 53.1334 38.2667 56.7334 41.2 59.8001C44.1333 62.8668 48.9333 64.6668 55.6 65.2001L66.8 66.2001C77.4667 67.1334 86.8667 69.4668 95 73.2001C103.133 76.8001 109.467 81.8001 114 88.2001C118.667 94.4668 121 102.133 121 111.2C121 120.533 118.533 128.733 113.6 135.8C108.8 142.733 101.933 148.133 93 152C84.0667 155.867 73.4 157.8 61 157.8Z" fill="#DBDBDB"/>
</svg>
