<svg width="1440" height="1784" viewBox="0 0 1440 1784" fill="none" xmlns="http://www.w3.org/2000/svg">
<path opacity="0.61" d="M-38 318.633L283.536 818.334C338.748 904.14 433.787 956 535.821 956H545.843C662.517 956 768.608 888.355 817.834 782.574L1031.63 323.146C1060.17 261.829 1108.59 211.953 1169.03 181.609L1477 27" stroke="url(#paint0_linear_157_1146)" stroke-width="60"/>
<path opacity="0.61" d="M1454 1116.63L1132.46 1616.33C1077.25 1702.14 982.213 1754 880.179 1754H870.157C753.483 1754 647.392 1686.35 598.166 1580.57L384.365 1121.15C355.831 1059.83 307.415 1009.95 246.972 979.609L-61 825" stroke="url(#paint1_linear_157_1146)" stroke-width="60"/>
<defs>
<linearGradient id="paint0_linear_157_1146" x1="635.5" y1="271" x2="633.5" y2="914.5" gradientUnits="userSpaceOnUse">
<stop stop-color="white"/>
<stop offset="1" stop-color="white" stop-opacity="0"/>
</linearGradient>
<linearGradient id="paint1_linear_157_1146" x1="780.5" y1="1069" x2="782.5" y2="1712.5" gradientUnits="userSpaceOnUse">
<stop stop-color="white"/>
<stop offset="1" stop-color="white" stop-opacity="0"/>
</linearGradient>
</defs>
</svg>
